<svg id="图层_1" data-name="图层 1" xmlns="http://www.w3.org/2000/svg" viewBox="0 0 537.71 229.04"><defs><style>.cls-1{fill:#111c3a;}.cls-2{fill:#214182;}</style></defs><rect class="cls-1" width="537.71" height="229.04" rx="20"/><path class="cls-2" d="M430.71,58.84c-14.81,0-26.82-3.19-26.82-7.13V62.62h.1c1.1,3.67,12.64,6.55,26.72,6.55s25.62-2.88,26.72-6.55h.1V51.71h0C457.53,55.65,445.52,58.84,430.71,58.84Z"/><ellipse class="cls-2" cx="430.71" cy="49.67" rx="26.82" ry="7.13"/><path class="cls-2" d="M478.08,105.7c-17.08,0-30.93-3.19-30.93-7.13v10.91h.11c1.28,3.66,14.58,6.55,30.82,6.55s29.55-2.89,30.82-6.55H509V98.57h0C509,102.51,495.16,105.7,478.08,105.7Z"/><ellipse class="cls-2" cx="478.08" cy="96.52" rx="30.93" ry="7.13"/><path class="cls-2" d="M473.71,96.89C465.89,39.3,451.84,30,446.58,29.66c-7.1-.44-15.5,14.33-17.33,20l-1.32-.59c.76-2.37,7.85-23.18,19.14-22.51,11.47.69,28.39,23.45,37.36,69.59Z"/></svg>