<svg id="图层_1" data-name="图层 1" xmlns="http://www.w3.org/2000/svg" xmlns:xlink="http://www.w3.org/1999/xlink" viewBox="0 0 257.64 187.89"><defs><style>.cls-1{fill:url(#未命名的渐变_23);}.cls-2{fill:#111c3a;}.cls-3{fill:#19c9ff;}</style><linearGradient id="未命名的渐变_23" x1="-98.33" y1="44.31" x2="159.32" y2="44.31" gradientUnits="userSpaceOnUse"><stop offset="0" stop-color="aqua"/><stop offset="1" stop-color="#7800ff"/></linearGradient></defs><path class="cls-1" d="M257.64,25.73a10,10,0,0,0-10-10H10a10,10,0,0,0-10,10V72.9H257.64Z"/><path class="cls-2" d="M0,72.9v105a10,10,0,0,0,10,10H247.64a10,10,0,0,0,10-10V72.9Z"/><path class="cls-3" d="M193.26,45.46s8.93,3.28,12.58,3.28,11.45-2.58,11.45-2.58,1.21-3.41-2.07-4.34c-3.72-1.06-6.43,1.09-10.68-.64s-10.82-6.83-10.82-6.83a10.62,10.62,0,0,0-10.3-.82c-5.83,2.55-11.76,5.28-11.76,5.28l7.2,14.95,4.56-2.19s2.37-1.73,5.47.55,12.85,7.1,12.85,7.1a8.58,8.58,0,0,0,8.47,0c4.37-2.55,26.61-18,26.61-18s3.1-6.2-6.47-5c0,0-2.19-3.83-9.11-.46,0,0-3.74-4-13,2.65L205.65,40a10.24,10.24,0,0,0,3.95.38c2.51-.22,6.27-.51,8.16,1.16s1.56,4.31,1.12,5.56c0,0-8.75,3.4-13.46,3.25-4.34-.13-12.82-3-12.82-3Z"/><path class="cls-3" d="M208.57,11.24c-.09-.05-.13,0-.18.13l-.8,1.54c-.26.51-.52,1-.79,1.52-.1.19-.07.25,0,.3.43.22.86.43,1.28.66a1,1,0,0,0,.78.06,2.66,2.66,0,0,0,1.61-2.21,1.39,1.39,0,0,0-.47-1.1A6.17,6.17,0,0,0,208.57,11.24Z"/><path class="cls-3" d="M215,.91c-5.7-3-13.89,1.54-18.28,10s-3.34,17.77,2.36,20.72,13.89-1.53,18.29-10S220.73,3.86,215,.91Zm-1.92,13a4.31,4.31,0,0,1-2.55,3.12l-.19.07.14.21c.68,1.07.57,2.48-.32,4A7.63,7.63,0,0,1,208.93,23a3.17,3.17,0,0,1-2.15.93,4,4,0,0,1-1.9-.53c-.12-.07-.19,0-.28.15-.41.81-.84,1.62-1.25,2.43-.09.17-.15.22-.27.15-.3-.17-.61-.32-.92-.47-.1-.05-.1-.12,0-.27.43-.83.85-1.66,1.29-2.48.08-.16.08-.23,0-.28s-.43-.22-.65-.33l-.13.24L201.36,25c-.08.17-.14.2-.26.14-.29-.17-.59-.32-.9-.47-.11-.05-.13-.11,0-.29l1.28-2.46c.09-.17.09-.23,0-.29l-2-1c-.11-.06-.12-.12,0-.29l.81-1.48c.07-.13.12-.13.19-.1l.7.37c.39.2.68.05,1-.54l2.44-4.7,1.59-3.08c.25-.48.24-.73-.06-.93a6.49,6.49,0,0,0-.9-.48c-.12-.06-.13-.14,0-.31.24-.45.48-.91.7-1.37.1-.19.16-.24.3-.17.68.37,1.36.72,2,1.07l.16.08.12-.24L209.65,6c.09-.17.15-.2.26-.14.3.17.6.32.91.48.1,0,.11.11,0,.26L209.6,9c-.09.15-.09.23,0,.28s.42.21.65.33l.13-.26c.41-.78.82-1.57,1.21-2.35.09-.17.15-.21.27-.15.3.17.6.33.91.48.1,0,.11.11,0,.27l-1.28,2.46c-.08.15-.07.22,0,.29a4.12,4.12,0,0,1,1.29,1.5A2.94,2.94,0,0,1,213.1,13.94Z"/><path class="cls-3" d="M207.52,17.43c-.52-.32-1.08-.58-1.62-.88-.11-.06-.17,0-.27.14-.57,1.11-1.14,2.22-1.72,3.33l-.1.22c.45.23.87.47,1.32.67a3.36,3.36,0,0,0,.83.27,1.85,1.85,0,0,0,1.82-.92c.62-.86.74-1.62.3-2.25A2.07,2.07,0,0,0,207.52,17.43Z"/></svg>