<svg id="图层_1" data-name="图层 1" xmlns="http://www.w3.org/2000/svg" viewBox="0 0 1240 49.47"><defs><style>.cls-1{fill:none;stroke:gray;stroke-miterlimit:10;stroke-width:0.2px;}</style></defs><line class="cls-1" x1="1240" x2="620"/><line class="cls-1" x1="1240" y1="3.3" x2="620" y2="3.3"/><line class="cls-1" x1="1240" y1="6.6" x2="620" y2="6.6"/><line class="cls-1" x1="1240" y1="9.89" x2="620" y2="9.89"/><line class="cls-1" x1="1240" y1="13.19" x2="620" y2="13.19"/><line class="cls-1" x1="1240" y1="16.49" x2="620" y2="16.49"/><line class="cls-1" x1="1240" y1="19.79" x2="620" y2="19.79"/><line class="cls-1" x1="1240" y1="23.09" x2="620" y2="23.09"/><line class="cls-1" x1="1240" y1="26.38" x2="620" y2="26.38"/><line class="cls-1" x1="1240" y1="29.68" x2="620" y2="29.68"/><line class="cls-1" x1="1240" y1="32.98" x2="620" y2="32.98"/><line class="cls-1" x1="1240" y1="36.28" x2="620" y2="36.28"/><line class="cls-1" x1="1240" y1="39.57" x2="620" y2="39.57"/><line class="cls-1" x1="1240" y1="42.87" x2="620" y2="42.87"/><line class="cls-1" x1="1240" y1="46.17" x2="620" y2="46.17"/><line class="cls-1" x1="1240" y1="49.47" x2="620" y2="49.47"/><line class="cls-1" x1="620" x2="620" y2="49.47"/><line class="cls-1" x1="623.3" x2="623.3" y2="49.47"/><line class="cls-1" x1="626.6" x2="626.6" y2="49.47"/><line class="cls-1" x1="629.89" x2="629.89" y2="49.47"/><line class="cls-1" x1="633.19" x2="633.19" y2="49.47"/><line class="cls-1" x1="636.49" x2="636.49" y2="49.47"/><line class="cls-1" x1="639.79" x2="639.79" y2="49.47"/><line class="cls-1" x1="643.09" x2="643.09" y2="49.47"/><line class="cls-1" x1="646.38" x2="646.38" y2="49.47"/><line class="cls-1" x1="649.68" x2="649.68" y2="49.47"/><line class="cls-1" x1="652.98" x2="652.98" y2="49.47"/><line class="cls-1" x1="656.28" x2="656.28" y2="49.47"/><line class="cls-1" x1="659.57" x2="659.57" y2="49.47"/><line class="cls-1" x1="662.87" x2="662.87" y2="49.47"/><line class="cls-1" x1="666.17" x2="666.17" y2="49.47"/><line class="cls-1" x1="669.47" x2="669.47" y2="49.47"/><line class="cls-1" x1="672.77" x2="672.77" y2="49.47"/><line class="cls-1" x1="676.06" x2="676.06" y2="49.47"/><line class="cls-1" x1="679.36" x2="679.36" y2="49.47"/><line class="cls-1" x1="682.66" x2="682.66" y2="49.47"/><line class="cls-1" x1="685.96" x2="685.96" y2="49.47"/><line class="cls-1" x1="689.26" x2="689.26" y2="49.47"/><line class="cls-1" x1="692.55" x2="692.55" y2="49.47"/><line class="cls-1" x1="695.85" x2="695.85" y2="49.47"/><line class="cls-1" x1="699.15" x2="699.15" y2="49.47"/><line class="cls-1" x1="702.45" x2="702.45" y2="49.47"/><line class="cls-1" x1="705.74" x2="705.74" y2="49.47"/><line class="cls-1" x1="709.04" x2="709.04" y2="49.47"/><line class="cls-1" x1="712.34" x2="712.34" y2="49.47"/><line class="cls-1" x1="715.64" x2="715.64" y2="49.47"/><line class="cls-1" x1="718.94" x2="718.94" y2="49.47"/><line class="cls-1" x1="722.23" x2="722.23" y2="49.47"/><line class="cls-1" x1="725.53" x2="725.53" y2="49.47"/><line class="cls-1" x1="728.83" x2="728.83" y2="49.47"/><line class="cls-1" x1="732.13" x2="732.13" y2="49.47"/><line class="cls-1" x1="735.43" x2="735.43" y2="49.47"/><line class="cls-1" x1="738.72" x2="738.72" y2="49.47"/><line class="cls-1" x1="742.02" x2="742.02" y2="49.47"/><line class="cls-1" x1="745.32" x2="745.32" y2="49.47"/><line class="cls-1" x1="748.62" x2="748.62" y2="49.47"/><line class="cls-1" x1="751.91" x2="751.91" y2="49.47"/><line class="cls-1" x1="755.21" x2="755.21" y2="49.47"/><line class="cls-1" x1="758.51" x2="758.51" y2="49.47"/><line class="cls-1" x1="761.81" x2="761.81" y2="49.47"/><line class="cls-1" x1="765.11" x2="765.11" y2="49.47"/><line class="cls-1" x1="768.4" x2="768.4" y2="49.47"/><line class="cls-1" x1="771.7" x2="771.7" y2="49.47"/><line class="cls-1" x1="775" x2="775" y2="49.47"/><line class="cls-1" x1="778.3" x2="778.3" y2="49.47"/><line class="cls-1" x1="781.6" x2="781.6" y2="49.47"/><line class="cls-1" x1="784.89" x2="784.89" y2="49.47"/><line class="cls-1" x1="788.19" x2="788.19" y2="49.47"/><line class="cls-1" x1="791.49" x2="791.49" y2="49.47"/><line class="cls-1" x1="794.79" x2="794.79" y2="49.47"/><line class="cls-1" x1="798.09" x2="798.09" y2="49.47"/><line class="cls-1" x1="801.38" x2="801.38" y2="49.47"/><line class="cls-1" x1="804.68" x2="804.68" y2="49.47"/><line class="cls-1" x1="807.98" x2="807.98" y2="49.47"/><line class="cls-1" x1="811.28" x2="811.28" y2="49.47"/><line class="cls-1" x1="814.57" x2="814.57" y2="49.47"/><line class="cls-1" x1="817.87" x2="817.87" y2="49.47"/><line class="cls-1" x1="821.17" x2="821.17" y2="49.47"/><line class="cls-1" x1="824.47" x2="824.47" y2="49.47"/><line class="cls-1" x1="827.77" x2="827.77" y2="49.47"/><line class="cls-1" x1="831.06" x2="831.06" y2="49.47"/><line class="cls-1" x1="834.36" x2="834.36" y2="49.47"/><line class="cls-1" x1="837.66" x2="837.66" y2="49.47"/><line class="cls-1" x1="840.96" x2="840.96" y2="49.47"/><line class="cls-1" x1="844.26" x2="844.26" y2="49.47"/><line class="cls-1" x1="847.55" x2="847.55" y2="49.47"/><line class="cls-1" x1="850.85" x2="850.85" y2="49.47"/><line class="cls-1" x1="854.15" x2="854.15" y2="49.47"/><line class="cls-1" x1="857.45" x2="857.45" y2="49.47"/><line class="cls-1" x1="860.74" x2="860.74" y2="49.47"/><line class="cls-1" x1="864.04" x2="864.04" y2="49.47"/><line class="cls-1" x1="867.34" x2="867.34" y2="49.47"/><line class="cls-1" x1="870.64" x2="870.64" y2="49.47"/><line class="cls-1" x1="873.94" x2="873.94" y2="49.47"/><line class="cls-1" x1="877.23" x2="877.23" y2="49.47"/><line class="cls-1" x1="880.53" x2="880.53" y2="49.47"/><line class="cls-1" x1="883.83" x2="883.83" y2="49.47"/><line class="cls-1" x1="887.13" x2="887.13" y2="49.47"/><line class="cls-1" x1="890.43" x2="890.43" y2="49.47"/><line class="cls-1" x1="893.72" x2="893.72" y2="49.47"/><line class="cls-1" x1="897.02" x2="897.02" y2="49.47"/><line class="cls-1" x1="900.32" x2="900.32" y2="49.47"/><line class="cls-1" x1="903.62" x2="903.62" y2="49.47"/><line class="cls-1" x1="906.91" x2="906.91" y2="49.47"/><line class="cls-1" x1="910.21" x2="910.21" y2="49.47"/><line class="cls-1" x1="913.51" x2="913.51" y2="49.47"/><line class="cls-1" x1="916.81" x2="916.81" y2="49.47"/><line class="cls-1" x1="920.11" x2="920.11" y2="49.47"/><line class="cls-1" x1="923.4" x2="923.4" y2="49.47"/><line class="cls-1" x1="926.7" x2="926.7" y2="49.47"/><line class="cls-1" x1="930" x2="930" y2="49.47"/><line class="cls-1" x1="933.3" x2="933.3" y2="49.47"/><line class="cls-1" x1="936.6" x2="936.6" y2="49.47"/><line class="cls-1" x1="939.89" x2="939.89" y2="49.47"/><line class="cls-1" x1="943.19" x2="943.19" y2="49.47"/><line class="cls-1" x1="946.49" x2="946.49" y2="49.47"/><line class="cls-1" x1="949.79" x2="949.79" y2="49.47"/><line class="cls-1" x1="953.09" x2="953.09" y2="49.47"/><line class="cls-1" x1="956.38" x2="956.38" y2="49.47"/><line class="cls-1" x1="959.68" x2="959.68" y2="49.47"/><line class="cls-1" x1="962.98" x2="962.98" y2="49.47"/><line class="cls-1" x1="966.28" x2="966.28" y2="49.47"/><line class="cls-1" x1="969.57" x2="969.57" y2="49.47"/><line class="cls-1" x1="972.87" x2="972.87" y2="49.47"/><line class="cls-1" x1="976.17" x2="976.17" y2="49.47"/><line class="cls-1" x1="979.47" x2="979.47" y2="49.47"/><line class="cls-1" x1="982.77" x2="982.77" y2="49.47"/><line class="cls-1" x1="986.06" x2="986.06" y2="49.47"/><line class="cls-1" x1="989.36" x2="989.36" y2="49.47"/><line class="cls-1" x1="992.66" x2="992.66" y2="49.47"/><line class="cls-1" x1="995.96" x2="995.96" y2="49.47"/><line class="cls-1" x1="999.26" x2="999.26" y2="49.47"/><line class="cls-1" x1="1002.55" x2="1002.55" y2="49.47"/><line class="cls-1" x1="1005.85" x2="1005.85" y2="49.47"/><line class="cls-1" x1="1009.15" x2="1009.15" y2="49.47"/><line class="cls-1" x1="1012.45" x2="1012.45" y2="49.47"/><line class="cls-1" x1="1015.74" x2="1015.74" y2="49.47"/><line class="cls-1" x1="1019.04" x2="1019.04" y2="49.47"/><line class="cls-1" x1="1022.34" x2="1022.34" y2="49.47"/><line class="cls-1" x1="1025.64" x2="1025.64" y2="49.47"/><line class="cls-1" x1="1028.94" x2="1028.94" y2="49.47"/><line class="cls-1" x1="1032.23" x2="1032.23" y2="49.47"/><line class="cls-1" x1="1035.53" x2="1035.53" y2="49.47"/><line class="cls-1" x1="1038.83" x2="1038.83" y2="49.47"/><line class="cls-1" x1="1042.13" x2="1042.13" y2="49.47"/><line class="cls-1" x1="1045.43" x2="1045.43" y2="49.47"/><line class="cls-1" x1="1048.72" x2="1048.72" y2="49.47"/><line class="cls-1" x1="1052.02" x2="1052.02" y2="49.47"/><line class="cls-1" x1="1055.32" x2="1055.32" y2="49.47"/><line class="cls-1" x1="1058.62" x2="1058.62" y2="49.47"/><line class="cls-1" x1="1061.91" x2="1061.91" y2="49.47"/><line class="cls-1" x1="1065.21" x2="1065.21" y2="49.47"/><line class="cls-1" x1="1068.51" x2="1068.51" y2="49.47"/><line class="cls-1" x1="1071.81" x2="1071.81" y2="49.47"/><line class="cls-1" x1="1075.11" x2="1075.11" y2="49.47"/><line class="cls-1" x1="1078.4" x2="1078.4" y2="49.47"/><line class="cls-1" x1="1081.7" x2="1081.7" y2="49.47"/><line class="cls-1" x1="1085" x2="1085" y2="49.47"/><line class="cls-1" x1="1088.3" x2="1088.3" y2="49.47"/><line class="cls-1" x1="1091.6" x2="1091.6" y2="49.47"/><line class="cls-1" x1="1094.89" x2="1094.89" y2="49.47"/><line class="cls-1" x1="1098.19" x2="1098.19" y2="49.47"/><line class="cls-1" x1="1101.49" x2="1101.49" y2="49.47"/><line class="cls-1" x1="1104.79" x2="1104.79" y2="49.47"/><line class="cls-1" x1="1108.09" x2="1108.09" y2="49.47"/><line class="cls-1" x1="1111.38" x2="1111.38" y2="49.47"/><line class="cls-1" x1="1114.68" x2="1114.68" y2="49.47"/><line class="cls-1" x1="1117.98" x2="1117.98" y2="49.47"/><line class="cls-1" x1="1121.28" x2="1121.28" y2="49.47"/><line class="cls-1" x1="1124.57" x2="1124.57" y2="49.47"/><line class="cls-1" x1="1127.87" x2="1127.87" y2="49.47"/><line class="cls-1" x1="1131.17" x2="1131.17" y2="49.47"/><line class="cls-1" x1="1134.47" x2="1134.47" y2="49.47"/><line class="cls-1" x1="1137.77" x2="1137.77" y2="49.47"/><line class="cls-1" x1="1141.06" x2="1141.06" y2="49.47"/><line class="cls-1" x1="1144.36" x2="1144.36" y2="49.47"/><line class="cls-1" x1="1147.66" x2="1147.66" y2="49.47"/><line class="cls-1" x1="1150.96" x2="1150.96" y2="49.47"/><line class="cls-1" x1="1154.26" x2="1154.26" y2="49.47"/><line class="cls-1" x1="1157.55" x2="1157.55" y2="49.47"/><line class="cls-1" x1="1160.85" x2="1160.85" y2="49.47"/><line class="cls-1" x1="1164.15" x2="1164.15" y2="49.47"/><line class="cls-1" x1="1167.45" x2="1167.45" y2="49.47"/><line class="cls-1" x1="1170.74" x2="1170.74" y2="49.47"/><line class="cls-1" x1="1174.04" x2="1174.04" y2="49.47"/><line class="cls-1" x1="1177.34" x2="1177.34" y2="49.47"/><line class="cls-1" x1="1180.64" x2="1180.64" y2="49.47"/><line class="cls-1" x1="1183.94" x2="1183.94" y2="49.47"/><line class="cls-1" x1="1187.23" x2="1187.23" y2="49.47"/><line class="cls-1" x1="1190.53" x2="1190.53" y2="49.47"/><line class="cls-1" x1="1193.83" x2="1193.83" y2="49.47"/><line class="cls-1" x1="1197.13" x2="1197.13" y2="49.47"/><line class="cls-1" x1="1200.43" x2="1200.43" y2="49.47"/><line class="cls-1" x1="1203.72" x2="1203.72" y2="49.47"/><line class="cls-1" x1="1207.02" x2="1207.02" y2="49.47"/><line class="cls-1" x1="1210.32" x2="1210.32" y2="49.47"/><line class="cls-1" x1="1213.62" x2="1213.62" y2="49.47"/><line class="cls-1" x1="1216.91" x2="1216.91" y2="49.47"/><line class="cls-1" x1="1220.21" x2="1220.21" y2="49.47"/><line class="cls-1" x1="1223.51" x2="1223.51" y2="49.47"/><line class="cls-1" x1="1226.81" x2="1226.81" y2="49.47"/><line class="cls-1" x1="1230.11" x2="1230.11" y2="49.47"/><line class="cls-1" x1="1233.4" x2="1233.4" y2="49.47"/><line class="cls-1" x1="1236.7" x2="1236.7" y2="49.47"/><line class="cls-1" x1="1240" x2="1240" y2="49.47"/><line class="cls-1" x1="620"/><line class="cls-1" x1="620" y1="3.3" y2="3.3"/><line class="cls-1" x1="620" y1="6.6" y2="6.6"/><line class="cls-1" x1="620" y1="9.89" y2="9.89"/><line class="cls-1" x1="620" y1="13.19" y2="13.19"/><line class="cls-1" x1="620" y1="16.49" y2="16.49"/><line class="cls-1" x1="620" y1="19.79" y2="19.79"/><line class="cls-1" x1="620" y1="23.09" y2="23.09"/><line class="cls-1" x1="620" y1="26.38" y2="26.38"/><line class="cls-1" x1="620" y1="29.68" y2="29.68"/><line class="cls-1" x1="620" y1="32.98" y2="32.98"/><line class="cls-1" x1="620" y1="36.28" y2="36.28"/><line class="cls-1" x1="620" y1="39.57" y2="39.58"/><line class="cls-1" x1="620" y1="42.87" y2="42.87"/><line class="cls-1" x1="620" y1="46.17" y2="46.17"/><line class="cls-1" x1="620" y1="49.47" y2="49.47"/><line class="cls-1" y2="49.47"/><line class="cls-1" x1="3.3" x2="3.3" y2="49.47"/><line class="cls-1" x1="6.6" x2="6.6" y2="49.47"/><line class="cls-1" x1="9.89" x2="9.89" y2="49.47"/><line class="cls-1" x1="13.19" x2="13.19" y2="49.47"/><line class="cls-1" x1="16.49" x2="16.49" y2="49.47"/><line class="cls-1" x1="19.79" x2="19.79" y2="49.47"/><line class="cls-1" x1="23.09" x2="23.09" y2="49.47"/><line class="cls-1" x1="26.38" x2="26.38" y2="49.47"/><line class="cls-1" x1="29.68" x2="29.68" y2="49.47"/><line class="cls-1" x1="32.98" x2="32.98" y2="49.47"/><line class="cls-1" x1="36.28" x2="36.28" y2="49.47"/><line class="cls-1" x1="39.57" x2="39.57" y2="49.47"/><line class="cls-1" x1="42.87" x2="42.87" y2="49.47"/><line class="cls-1" x1="46.17" x2="46.17" y2="49.47"/><line class="cls-1" x1="49.47" x2="49.47" y2="49.47"/><line class="cls-1" x1="52.77" x2="52.77" y2="49.47"/><line class="cls-1" x1="56.06" x2="56.06" y2="49.47"/><line class="cls-1" x1="59.36" x2="59.36" y2="49.47"/><line class="cls-1" x1="62.66" x2="62.66" y2="49.47"/><line class="cls-1" x1="65.96" x2="65.96" y2="49.47"/><line class="cls-1" x1="69.26" x2="69.26" y2="49.47"/><line class="cls-1" x1="72.55" x2="72.55" y2="49.47"/><line class="cls-1" x1="75.85" x2="75.85" y2="49.47"/><line class="cls-1" x1="79.15" x2="79.15" y2="49.47"/><line class="cls-1" x1="82.45" x2="82.45" y2="49.47"/><line class="cls-1" x1="85.74" x2="85.74" y2="49.47"/><line class="cls-1" x1="89.04" x2="89.04" y2="49.47"/><line class="cls-1" x1="92.34" x2="92.34" y2="49.47"/><line class="cls-1" x1="95.64" x2="95.64" y2="49.47"/><line class="cls-1" x1="98.94" x2="98.94" y2="49.47"/><line class="cls-1" x1="102.23" x2="102.23" y2="49.47"/><line class="cls-1" x1="105.53" x2="105.53" y2="49.47"/><line class="cls-1" x1="108.83" x2="108.83" y2="49.47"/><line class="cls-1" x1="112.13" x2="112.13" y2="49.47"/><line class="cls-1" x1="115.43" x2="115.43" y2="49.47"/><line class="cls-1" x1="118.72" x2="118.72" y2="49.47"/><line class="cls-1" x1="122.02" x2="122.02" y2="49.47"/><line class="cls-1" x1="125.32" x2="125.32" y2="49.47"/><line class="cls-1" x1="128.62" x2="128.62" y2="49.47"/><line class="cls-1" x1="131.91" x2="131.91" y2="49.47"/><line class="cls-1" x1="135.21" x2="135.21" y2="49.47"/><line class="cls-1" x1="138.51" x2="138.51" y2="49.47"/><line class="cls-1" x1="141.81" x2="141.81" y2="49.47"/><line class="cls-1" x1="145.11" x2="145.11" y2="49.47"/><line class="cls-1" x1="148.4" x2="148.4" y2="49.47"/><line class="cls-1" x1="151.7" x2="151.7" y2="49.47"/><line class="cls-1" x1="155" x2="155" y2="49.47"/><line class="cls-1" x1="158.3" x2="158.3" y2="49.47"/><line class="cls-1" x1="161.6" x2="161.6" y2="49.47"/><line class="cls-1" x1="164.89" x2="164.89" y2="49.47"/><line class="cls-1" x1="168.19" x2="168.19" y2="49.47"/><line class="cls-1" x1="171.49" x2="171.49" y2="49.47"/><line class="cls-1" x1="174.79" x2="174.79" y2="49.47"/><line class="cls-1" x1="178.09" x2="178.09" y2="49.47"/><line class="cls-1" x1="181.38" x2="181.38" y2="49.47"/><line class="cls-1" x1="184.68" x2="184.68" y2="49.47"/><line class="cls-1" x1="187.98" x2="187.98" y2="49.47"/><line class="cls-1" x1="191.28" x2="191.28" y2="49.47"/><line class="cls-1" x1="194.57" x2="194.57" y2="49.47"/><line class="cls-1" x1="197.87" x2="197.87" y2="49.47"/><line class="cls-1" x1="201.17" x2="201.17" y2="49.47"/><line class="cls-1" x1="204.47" x2="204.47" y2="49.47"/><line class="cls-1" x1="207.77" x2="207.77" y2="49.47"/><line class="cls-1" x1="211.06" x2="211.06" y2="49.47"/><line class="cls-1" x1="214.36" x2="214.36" y2="49.47"/><line class="cls-1" x1="217.66" x2="217.66" y2="49.47"/><line class="cls-1" x1="220.96" x2="220.96" y2="49.47"/><line class="cls-1" x1="224.26" x2="224.26" y2="49.47"/><line class="cls-1" x1="227.55" x2="227.55" y2="49.47"/><line class="cls-1" x1="230.85" x2="230.85" y2="49.47"/><line class="cls-1" x1="234.15" x2="234.15" y2="49.47"/><line class="cls-1" x1="237.45" x2="237.45" y2="49.47"/><line class="cls-1" x1="240.74" x2="240.74" y2="49.47"/><line class="cls-1" x1="244.04" x2="244.04" y2="49.47"/><line class="cls-1" x1="247.34" x2="247.34" y2="49.47"/><line class="cls-1" x1="250.64" x2="250.64" y2="49.47"/><line class="cls-1" x1="253.94" x2="253.94" y2="49.47"/><line class="cls-1" x1="257.23" x2="257.23" y2="49.47"/><line class="cls-1" x1="260.53" x2="260.53" y2="49.47"/><line class="cls-1" x1="263.83" x2="263.83" y2="49.47"/><line class="cls-1" x1="267.13" x2="267.13" y2="49.47"/><line class="cls-1" x1="270.43" x2="270.43" y2="49.47"/><line class="cls-1" x1="273.72" x2="273.72" y2="49.47"/><line class="cls-1" x1="277.02" x2="277.02" y2="49.47"/><line class="cls-1" x1="280.32" x2="280.32" y2="49.47"/><line class="cls-1" x1="283.62" x2="283.62" y2="49.47"/><line class="cls-1" x1="286.91" x2="286.91" y2="49.47"/><line class="cls-1" x1="290.21" x2="290.21" y2="49.47"/><line class="cls-1" x1="293.51" x2="293.51" y2="49.47"/><line class="cls-1" x1="296.81" x2="296.81" y2="49.47"/><line class="cls-1" x1="300.11" x2="300.11" y2="49.47"/><line class="cls-1" x1="303.4" x2="303.4" y2="49.47"/><line class="cls-1" x1="306.7" x2="306.7" y2="49.47"/><line class="cls-1" x1="310" x2="310" y2="49.47"/><line class="cls-1" x1="313.3" x2="313.3" y2="49.47"/><line class="cls-1" x1="316.6" x2="316.6" y2="49.47"/><line class="cls-1" x1="319.89" x2="319.89" y2="49.47"/><line class="cls-1" x1="323.19" x2="323.19" y2="49.47"/><line class="cls-1" x1="326.49" x2="326.49" y2="49.47"/><line class="cls-1" x1="329.79" x2="329.79" y2="49.47"/><line class="cls-1" x1="333.09" x2="333.09" y2="49.47"/><line class="cls-1" x1="336.38" x2="336.38" y2="49.47"/><line class="cls-1" x1="339.68" x2="339.68" y2="49.47"/><line class="cls-1" x1="342.98" x2="342.98" y2="49.47"/><line class="cls-1" x1="346.28" x2="346.28" y2="49.47"/><line class="cls-1" x1="349.57" x2="349.57" y2="49.47"/><line class="cls-1" x1="352.87" x2="352.87" y2="49.47"/><line class="cls-1" x1="356.17" x2="356.17" y2="49.47"/><line class="cls-1" x1="359.47" x2="359.47" y2="49.47"/><line class="cls-1" x1="362.77" x2="362.77" y2="49.47"/><line class="cls-1" x1="366.06" x2="366.06" y2="49.47"/><line class="cls-1" x1="369.36" x2="369.36" y2="49.47"/><line class="cls-1" x1="372.66" x2="372.66" y2="49.47"/><line class="cls-1" x1="375.96" x2="375.96" y2="49.47"/><line class="cls-1" x1="379.26" x2="379.26" y2="49.47"/><line class="cls-1" x1="382.55" x2="382.55" y2="49.47"/><line class="cls-1" x1="385.85" x2="385.85" y2="49.47"/><line class="cls-1" x1="389.15" x2="389.15" y2="49.47"/><line class="cls-1" x1="392.45" x2="392.45" y2="49.47"/><line class="cls-1" x1="395.74" x2="395.74" y2="49.47"/><line class="cls-1" x1="399.04" x2="399.04" y2="49.47"/><line class="cls-1" x1="402.34" x2="402.34" y2="49.47"/><line class="cls-1" x1="405.64" x2="405.64" y2="49.47"/><line class="cls-1" x1="408.94" x2="408.94" y2="49.47"/><line class="cls-1" x1="412.23" x2="412.23" y2="49.47"/><line class="cls-1" x1="415.53" x2="415.53" y2="49.47"/><line class="cls-1" x1="418.83" x2="418.83" y2="49.47"/><line class="cls-1" x1="422.13" x2="422.13" y2="49.47"/><line class="cls-1" x1="425.43" x2="425.43" y2="49.47"/><line class="cls-1" x1="428.72" x2="428.72" y2="49.47"/><line class="cls-1" x1="432.02" x2="432.02" y2="49.47"/><line class="cls-1" x1="435.32" x2="435.32" y2="49.47"/><line class="cls-1" x1="438.62" x2="438.62" y2="49.47"/><line class="cls-1" x1="441.91" x2="441.91" y2="49.47"/><line class="cls-1" x1="445.21" x2="445.21" y2="49.47"/><line class="cls-1" x1="448.51" x2="448.51" y2="49.47"/><line class="cls-1" x1="451.81" x2="451.81" y2="49.47"/><line class="cls-1" x1="455.11" x2="455.11" y2="49.47"/><line class="cls-1" x1="458.4" x2="458.4" y2="49.47"/><line class="cls-1" x1="461.7" x2="461.7" y2="49.47"/><line class="cls-1" x1="465" x2="465" y2="49.47"/><line class="cls-1" x1="468.3" x2="468.3" y2="49.47"/><line class="cls-1" x1="471.6" x2="471.6" y2="49.47"/><line class="cls-1" x1="474.89" x2="474.89" y2="49.47"/><line class="cls-1" x1="478.19" x2="478.19" y2="49.47"/><line class="cls-1" x1="481.49" x2="481.49" y2="49.47"/><line class="cls-1" x1="484.79" x2="484.79" y2="49.47"/><line class="cls-1" x1="488.09" x2="488.09" y2="49.47"/><line class="cls-1" x1="491.38" x2="491.38" y2="49.47"/><line class="cls-1" x1="494.68" x2="494.68" y2="49.47"/><line class="cls-1" x1="497.98" x2="497.98" y2="49.47"/><line class="cls-1" x1="501.28" x2="501.28" y2="49.47"/><line class="cls-1" x1="504.57" x2="504.57" y2="49.47"/><line class="cls-1" x1="507.87" x2="507.87" y2="49.47"/><line class="cls-1" x1="511.17" x2="511.17" y2="49.47"/><line class="cls-1" x1="514.47" x2="514.47" y2="49.47"/><line class="cls-1" x1="517.77" x2="517.77" y2="49.47"/><line class="cls-1" x1="521.06" x2="521.06" y2="49.47"/><line class="cls-1" x1="524.36" x2="524.36" y2="49.47"/><line class="cls-1" x1="527.66" x2="527.66" y2="49.47"/><line class="cls-1" x1="530.96" x2="530.96" y2="49.47"/><line class="cls-1" x1="534.26" x2="534.26" y2="49.47"/><line class="cls-1" x1="537.55" x2="537.55" y2="49.47"/><line class="cls-1" x1="540.85" x2="540.85" y2="49.47"/><line class="cls-1" x1="544.15" x2="544.15" y2="49.47"/><line class="cls-1" x1="547.45" x2="547.45" y2="49.47"/><line class="cls-1" x1="550.74" x2="550.74" y2="49.47"/><line class="cls-1" x1="554.04" x2="554.04" y2="49.47"/><line class="cls-1" x1="557.34" x2="557.34" y2="49.47"/><line class="cls-1" x1="560.64" x2="560.64" y2="49.47"/><line class="cls-1" x1="563.94" x2="563.94" y2="49.47"/><line class="cls-1" x1="567.23" x2="567.23" y2="49.47"/><line class="cls-1" x1="570.53" x2="570.53" y2="49.47"/><line class="cls-1" x1="573.83" x2="573.83" y2="49.47"/><line class="cls-1" x1="577.13" x2="577.13" y2="49.47"/><line class="cls-1" x1="580.43" x2="580.43" y2="49.47"/><line class="cls-1" x1="583.72" x2="583.72" y2="49.47"/><line class="cls-1" x1="587.02" x2="587.02" y2="49.47"/><line class="cls-1" x1="590.32" x2="590.32" y2="49.47"/><line class="cls-1" x1="593.62" x2="593.62" y2="49.47"/><line class="cls-1" x1="596.91" x2="596.91" y2="49.47"/><line class="cls-1" x1="600.21" x2="600.21" y2="49.47"/><line class="cls-1" x1="603.51" x2="603.51" y2="49.47"/><line class="cls-1" x1="606.81" x2="606.81" y2="49.47"/><line class="cls-1" x1="610.11" x2="610.11" y2="49.47"/><line class="cls-1" x1="613.4" x2="613.4" y2="49.47"/><line class="cls-1" x1="616.7" x2="616.7" y2="49.47"/></svg>