<svg id="图层_1" data-name="图层 1" xmlns="http://www.w3.org/2000/svg" xmlns:xlink="http://www.w3.org/1999/xlink" viewBox="0 0 257.64 182.66"><defs><style>.cls-1{fill:url(#未命名的渐变_23);}.cls-2{fill:#111c3a;}.cls-3{fill:#19c9ff;}</style><linearGradient id="未命名的渐变_23" x1="-98.66" y1="39.08" x2="158.98" y2="39.08" gradientUnits="userSpaceOnUse"><stop offset="0" stop-color="aqua"/><stop offset="1" stop-color="#7800ff"/></linearGradient></defs><path class="cls-1" d="M257.64,20.5a10,10,0,0,0-10-10H10a10,10,0,0,0-10,10V67.67H257.64Z"/><path class="cls-2" d="M0,67.67v105a10,10,0,0,0,10,10H247.64a10,10,0,0,0,10-10v-105Z"/><path class="cls-3" d="M225.77,11.89c0,2.29-4.66,4.16-10.4,4.16S205,14.18,205,11.89v4.16c0,2.3,4.66,4.16,10.41,4.16s10.4-1.86,10.4-4.16V11.89Z"/><path class="cls-3" d="M225.77,5.94c0,2.3-4.66,4.16-10.4,4.16S205,8.24,205,5.94V10.1c0,2.3,4.66,4.17,10.41,4.17s10.4-1.87,10.4-4.17V5.94Z"/><path class="cls-3" d="M225.77,17.85c0,2.3-4.66,4.17-10.4,4.17S205,20.15,205,17.85V22c0,2.29,4.66,4.16,10.41,4.16s10.4-1.87,10.4-4.16V17.85Z"/><path class="cls-3" d="M225.77,23.82c0,2.3-4.66,4.16-10.4,4.16S205,26.12,205,23.82V28c0,2.3,4.66,4.17,10.41,4.17s10.4-1.87,10.4-4.17V23.82Z"/><path class="cls-3" d="M225.77,29.79c0,2.3-4.66,4.16-10.4,4.16S205,32.09,205,29.79V34c0,2.3,4.66,4.16,10.41,4.16s10.4-1.86,10.4-4.16V29.79Z"/><path class="cls-3" d="M225.77,35.76c0,2.3-4.66,4.16-10.4,4.16S205,38.06,205,35.76v4.16c0,2.3,4.66,4.16,10.41,4.16s10.4-1.86,10.4-4.16V35.76Z"/><path class="cls-3" d="M225.77,41.73c0,2.3-4.66,4.16-10.4,4.16S205,44,205,41.73v4.16c0,2.3,4.66,4.16,10.41,4.16s10.4-1.86,10.4-4.16V41.73Z"/><path class="cls-3" d="M204.51,23.81c0,2.3-4.66,4.16-10.4,4.16s-10.41-1.86-10.41-4.16V28c0,2.3,4.66,4.16,10.41,4.16s10.4-1.86,10.4-4.16V23.81Z"/><path class="cls-3" d="M204.51,29.78c0,2.3-4.66,4.16-10.4,4.16s-10.41-1.86-10.41-4.16v4.16c0,2.3,4.66,4.16,10.41,4.16s10.4-1.86,10.4-4.16V29.78Z"/><path class="cls-3" d="M204.51,35.75c0,2.3-4.66,4.16-10.4,4.16s-10.41-1.86-10.41-4.16v4.16c0,2.3,4.66,4.16,10.41,4.16s10.4-1.86,10.4-4.16V35.75Z"/><path class="cls-3" d="M204.51,41.72c0,2.29-4.66,4.16-10.4,4.16S183.7,44,183.7,41.72v4.16c0,2.29,4.66,4.16,10.41,4.16s10.4-1.87,10.4-4.16V41.72Z"/><path class="cls-3" d="M247,35.72c0,2.3-4.66,4.16-10.4,4.16S226.22,38,226.22,35.72v4.16c0,2.3,4.66,4.16,10.41,4.16S247,42.18,247,39.88V35.72Z"/><path class="cls-3" d="M247,41.69c0,2.3-4.66,4.16-10.4,4.16S226.22,44,226.22,41.69v4.16c0,2.3,4.66,4.16,10.41,4.16S247,48.15,247,45.85V41.69Z"/><path class="cls-3" d="M236.36,33.44h1a1.72,1.72,0,0,0,.52-.08c.43-.13.58-.44.3-.63a1.44,1.44,0,0,0-.67-.17,10.27,10.27,0,0,0-1.24,0c-.07,0-.07,0-.07,0V33c0,.13,0,.26,0,.4S236.27,33.44,236.36,33.44Z"/><path class="cls-3" d="M238.24,34a4.63,4.63,0,0,0-.55-.06h-1.33c-.09,0-.13,0-.13.06,0,.29,0,.58,0,.87v.06h1.07c.21,0,.43,0,.63,0,.44,0,.75-.17.86-.39S238.74,34.07,238.24,34Z"/><path class="cls-3" d="M236.63,29.78c-5.75,0-10.41,1.86-10.41,4.16s4.66,4.16,10.41,4.16S247,36.24,247,33.94,242.37,29.78,236.63,29.78Zm4.07,4.66a.77.77,0,0,1-.26.48,2.12,2.12,0,0,1-1.07.42,8,8,0,0,1-1.4.1c-.1,0-.13,0-.12.06v.63s0,.07-.12.07-.5,0-.75,0c-.08,0-.11,0-.11-.06,0-.21,0-.43,0-.65,0,0,0-.06-.11-.05h-.53v.06c0,.21,0,.43,0,.64,0,0,0,.06-.12.06-.25,0-.49,0-.74,0-.09,0-.12,0-.12-.06,0-.22,0-.43,0-.65,0,0,0-.05-.12-.05h-1.63c-.09,0-.13,0-.12-.06s0-.26,0-.39,0,0,.09,0h.57c.32,0,.46-.06.46-.22v-2c0-.13-.09-.18-.35-.19h-.74c-.09,0-.12,0-.12-.06v-.36s0-.07.13-.07c.56,0,1.12,0,1.67,0h.13V32c0-.21,0-.41,0-.62,0,0,0-.06.12-.06h.75c.08,0,.11,0,.11.05,0,.22,0,.43,0,.64,0,0,0,.06.12.06h.53V32c0-.21,0-.42,0-.62,0,0,0-.06.12-.06h.75c.08,0,.11,0,.11.05V32s0,.06.11.06a7.11,7.11,0,0,1,1.32.17,1.61,1.61,0,0,1,.84.4c.27.33,0,.71-.6.92l-.1,0,.16,0C240.37,33.73,240.77,34,240.7,34.44Z"/><path class="cls-3" d="M217,4.11a5.14,5.14,0,0,0-.55-.06h-1.34c-.09,0-.12,0-.12.06V5A.13.13,0,0,0,215,5h1.07a4.21,4.21,0,0,0,.62,0c.44,0,.76-.16.86-.38S217.49,4.19,217,4.11Z"/><path class="cls-3" d="M215.12,3.56h1a1.37,1.37,0,0,0,.51-.07c.44-.13.59-.44.31-.63a1.65,1.65,0,0,0-.68-.18c-.41,0-.82,0-1.23,0-.08,0-.08,0-.08,0v.41c0,.13,0,.26,0,.4S215,3.57,215.12,3.56Z"/><path class="cls-3" d="M215.37,0C209.62,0,205,1.86,205,4.16s4.66,4.16,10.41,4.16,10.4-1.86,10.4-4.16S221.11,0,215.37,0Zm4.08,4.57a.75.75,0,0,1-.25.48,2.2,2.2,0,0,1-1.07.42,8.1,8.1,0,0,1-1.4.1c-.1,0-.13,0-.13.06,0,.21,0,.42,0,.63,0,0,0,.07-.12.07h-.74c-.09,0-.11,0-.11-.06V5.62s0-.06-.11,0H215v.7s0,.06-.12.06h-.73c-.09,0-.12,0-.12-.06V5.62s0,0-.12,0h-1.63c-.09,0-.12,0-.12-.06s0-.26,0-.39,0,0,.09,0h.57c.32,0,.45-.06.45-.22v-2c0-.13-.08-.18-.35-.19h-.73c-.1,0-.13,0-.13-.06a2.16,2.16,0,0,0,0-.36s0-.07.14-.07H214V1.46c0-.05,0-.06.12-.06h.74c.08,0,.11,0,.11.05v.64s0,.06.11.05h.53V1.46c0-.05,0-.06.12-.06h.75c.08,0,.11,0,.1.05V2.1s0,0,.11.06a6.9,6.9,0,0,1,1.32.17,1.57,1.57,0,0,1,.84.4c.28.33,0,.71-.6.92l-.1,0,.16,0C219.12,3.86,219.52,4.17,219.45,4.57Z"/><path class="cls-3" d="M194,21.44h1a1.37,1.37,0,0,0,.51-.07c.44-.13.59-.44.31-.63a1.65,1.65,0,0,0-.68-.18c-.41,0-.82,0-1.23,0-.08,0-.08,0-.08,0V21c0,.13,0,.26,0,.4S193.94,21.45,194,21.44Z"/><path class="cls-3" d="M195.92,22a5.14,5.14,0,0,0-.55-.06H194c-.09,0-.12,0-.12.06v.87s0,0,0,.06H195a4.21,4.21,0,0,0,.62,0c.44,0,.76-.16.86-.38S196.41,22.07,195.92,22Z"/><path class="cls-3" d="M194.11,17.87c-5.75,0-10.41,1.86-10.41,4.16s4.66,4.16,10.41,4.16,10.4-1.86,10.4-4.16S199.85,17.87,194.11,17.87Zm4.27,4.58a.82.82,0,0,1-.26.48,2.2,2.2,0,0,1-1.07.42,8,8,0,0,1-1.4.1c-.1,0-.13,0-.13.06,0,.21,0,.42,0,.63,0,.05,0,.07-.13.07s-.49,0-.74,0c-.09,0-.11,0-.11-.06V23.5s0-.06-.11-.05h-.53v.7s0,.06-.12.06-.49,0-.73,0c-.09,0-.12,0-.12-.06V23.5s0-.06-.12-.05h-1.63c-.09,0-.12,0-.12-.06s0-.26,0-.39,0,0,.09,0h.57c.32,0,.45-.07.45-.22,0-.41,0-.82,0-1.23V20.7c0-.13-.08-.18-.35-.19s-.49,0-.73,0-.13,0-.13-.06a2.16,2.16,0,0,0,0-.36c0-.05,0-.07.14-.07.55,0,1.11,0,1.67,0h.13v-.68c0-.05,0-.06.12-.06h.74c.08,0,.11,0,.11,0V20s0,.06.11.05h.53v-.68c0-.05,0-.06.12-.06h.75c.08,0,.11,0,.11,0,0,.22,0,.43,0,.65,0,0,0,.05.11.06a6.9,6.9,0,0,1,1.32.17,1.57,1.57,0,0,1,.84.4c.28.33,0,.71-.6.92l-.1,0,.16,0C198.05,21.74,198.44,22.05,198.38,22.45Z"/></svg>