<svg id="图层_1" data-name="图层 1" xmlns="http://www.w3.org/2000/svg" xmlns:xlink="http://www.w3.org/1999/xlink" viewBox="0 0 257.04 183.07"><defs><style>.cls-1{fill:url(#未命名的渐变_23);}.cls-2{fill:#111c3a;}.cls-3{fill:#19c9ff;}</style><linearGradient id="未命名的渐变_23" x1="-87.11" y1="39.5" x2="170.54" y2="39.5" gradientUnits="userSpaceOnUse"><stop offset="0" stop-color="aqua"/><stop offset="1" stop-color="#7800ff"/></linearGradient></defs><path class="cls-1" d="M257,20.91a10,10,0,0,0-10-10H9.4a10,10,0,0,0-10,10V68.08H257Z"/><path class="cls-2" d="M-.6,68.08v105a10,10,0,0,0,10,10H247a10,10,0,0,0,10-10v-105Z"/><path class="cls-3" d="M226.79,51.2h-51.2V0h51.2Zm-47.68-3.52h44.15V3.52H179.11Z"/><rect class="cls-3" x="191.48" y="1.76" width="3.52" height="47.68"/><rect class="cls-3" x="207.37" y="1.76" width="3.52" height="47.68"/><path class="cls-3" d="M188.45,38.77A19,19,0,0,1,176.75,35L179,32.32c.33.27,8.18,6.54,20.5-.19,15.55-8.49,26.18-.18,26.62.17l-2.21,2.75c-.37-.29-9.31-7.15-22.72.17A26.39,26.39,0,0,1,188.45,38.77Z"/><path class="cls-3" d="M188.45,22.88a19,19,0,0,1-11.7-3.75l2.26-2.7c.33.27,8.18,6.54,20.5-.19,15.55-8.5,26.17-.19,26.62.17l-2.21,2.75c-.37-.3-9.31-7.16-22.72.17A26.39,26.39,0,0,1,188.45,22.88Z"/></svg>