<svg id="图层_1" data-name="图层 1" xmlns="http://www.w3.org/2000/svg" viewBox="0 0 124.18 29.86"><defs><style>.cls-1{fill:#02ffff;}.cls-2{fill:#70f;}.cls-3{fill:#fff;}</style></defs><path class="cls-1" d="M1.82,17.26l-1,5.4h9.86a15.07,15.07,0,0,0,3.66-.42A9,9,0,0,0,17.27,21,5.87,5.87,0,0,0,19.16,19a5,5,0,0,0,.58-1.69Z"/><path class="cls-1" d="M17,13a4.13,4.13,0,0,0-1.15-.94,4.65,4.65,0,0,0-1.36-.51v-.06a6.24,6.24,0,0,0,3.08-1.88A5.18,5.18,0,0,0,18.74,6.1a4,4,0,0,0-.56-2.18,4.43,4.43,0,0,0-1.45-1.44,6.14,6.14,0,0,0-2-.8,10.48,10.48,0,0,0-2.22-.24H2.79L0,17.26H6.45L7,14.06h2a2.83,2.83,0,0,1,1.56.37,1.24,1.24,0,0,1,.54,1.07,1.58,1.58,0,0,1-.24.88,1.72,1.72,0,0,1-.65.54,3.15,3.15,0,0,1-.94.27,8.07,8.07,0,0,1-1.11.07h9.71A7.06,7.06,0,0,0,18,16.11a5.2,5.2,0,0,0-.28-1.71A4.44,4.44,0,0,0,17,13Zm-5.21-4.1a1.49,1.49,0,0,1-.53.5,2.22,2.22,0,0,1-.74.24,5.35,5.35,0,0,1-.79.06H7.77l.48-2.93H10a3,3,0,0,1,1.42.3,1,1,0,0,1,.56,1A1.48,1.48,0,0,1,11.75,8.94Z"/><path class="cls-1" d="M31,17.26a2.6,2.6,0,0,1-.69,1.06,2.44,2.44,0,0,1-1.69.62,2.34,2.34,0,0,1-.95-.19.88.88,0,0,1-.43-.88,1.13,1.13,0,0,1,.16-.61H21.54a6.13,6.13,0,0,0-.21,1.66,4,4,0,0,0,.43,1.9,3.72,3.72,0,0,0,1.09,1.29,4.81,4.81,0,0,0,1.51.73,6.09,6.09,0,0,0,1.68.24,6.9,6.9,0,0,0,2.46-.43,5.12,5.12,0,0,0,2-1.43h.06c0,.2,0,.46-.05.77s0,.53,0,.67h5.75c0-.26,0-.62.05-1.08a11.42,11.42,0,0,1,.16-1.34l.53-3Z"/><path class="cls-1" d="M35.88,12a15.67,15.67,0,0,1-.23,2.49l-.5,2.81h-6a3.05,3.05,0,0,0,.16-.56l.09-.51h-.39a10.45,10.45,0,0,0-1.41.09,5,5,0,0,0-1.15.28,2.2,2.2,0,0,0-.8.51,1.33,1.33,0,0,0-.14.19H19.72a4.33,4.33,0,0,1,.62-1.36A5.74,5.74,0,0,1,22.56,14a11.06,11.06,0,0,1,3.22-1,24.93,24.93,0,0,1,3.84-.29.81.81,0,0,0,0-.2v-.13a1,1,0,0,0-.53-.91,2.58,2.58,0,0,0-1.36-.32c-.64,0-1.69,1.38-1.69,1.38H24.25L21.32,9.23A8.31,8.31,0,0,1,23,8a12.7,12.7,0,0,1,1.87-.88,10.51,10.51,0,0,1,1.95-.55,11.53,11.53,0,0,1,1.89-.17,8.52,8.52,0,0,1,5.41,1.45A4.94,4.94,0,0,1,35.88,12Z"/><path class="cls-1" d="M49.71,17.26l-1,5.4h6.75l.94-5.4Zm-10.93,5.4h6.71l1-5.4H39.73Z"/><path class="cls-1" d="M55.52,11.18c0,.32,0,.65-.05,1s-.07.68-.13,1l-.71,4.07H47.89l.52-3a3.31,3.31,0,0,0,.08-.55c0-.19,0-.35,0-.47a1.41,1.41,0,0,0-.33-1,1.33,1.33,0,0,0-1.05-.38,1.56,1.56,0,0,0-1.21.62,3.67,3.67,0,0,0-.73,1.78l-.53,2.93H37.91L39.18,10c.08-.38.17-.87.26-1.47s.15-1.13.19-1.62H46.1c0,.3-.05.65-.08,1s-.08.72-.12,1H46A5.83,5.83,0,0,1,48,7.26a5.28,5.28,0,0,1,2.74-.73,5.63,5.63,0,0,1,2.23.4,4.21,4.21,0,0,1,1.5,1,3.83,3.83,0,0,1,.84,1.48A6,6,0,0,1,55.52,11.18Z"/><path class="cls-1" d="M59.54,17.26l-.95,5.4h6.72l.92-5.4Zm14.08,0H66.23l2.59,5.4h8.3Z"/><polygon class="cls-1" points="77.88 6.89 71.8 17.27 64.41 17.27 69.69 6.89 77.88 6.89"/><polygon class="cls-1" points="67.51 0 64.41 17.27 57.72 17.27 60.76 0 67.51 0"/><path class="cls-1" d="M92.85,17.26H85.69s-.22.43,0,.53,1,.3,1,.54.06.22-.17.33a2.24,2.24,0,0,1-.94.16c-.58,0-1.87-1.56-1.87-1.56H81.81l-3.42,4.08A8.33,8.33,0,0,0,81.72,23a14.63,14.63,0,0,0,3.6.48,12,12,0,0,0,2.62-.3,7.68,7.68,0,0,0,2.43-1,5.7,5.7,0,0,0,1.79-1.8,4.92,4.92,0,0,0,.71-2.69C92.87,17.56,92.86,17.41,92.85,17.26Z"/><path class="cls-1" d="M90.69,15.89A3.89,3.89,0,0,1,91,17.26h-7.4A9.11,9.11,0,0,1,80,15.47a4.1,4.1,0,0,1-.9-1.26,4.16,4.16,0,0,1-.32-1.68A5,5,0,0,1,79.47,10a5.44,5.44,0,0,1,1.71-1.83,7.53,7.53,0,0,1,2.39-1.07,10.29,10.29,0,0,1,2.68-.36,12.27,12.27,0,0,1,3.59.52,7.51,7.51,0,0,1,2.8,1.48l-1.63,4H89.19a4,4,0,0,0-1.41-.91A4.51,4.51,0,0,0,86,11.36a2.44,2.44,0,0,0-1,.17.53.53,0,0,0-.37.52.5.5,0,0,0,.31.46,6.09,6.09,0,0,0,1.09.38,13.06,13.06,0,0,1,2,.67,6.25,6.25,0,0,1,1.57,1A4,4,0,0,1,90.69,15.89Z"/><path class="cls-1" d="M98.13,17.26l1.21,5.93a2.72,2.72,0,0,1-.75.78,2.36,2.36,0,0,1-1.47.42.58.58,0,0,0,0-.32H95.28l-1.14,5.3a9.54,9.54,0,0,0,1.47.34,13.3,13.3,0,0,0,2,.15,9.33,9.33,0,0,0,3-.43,7.08,7.08,0,0,0,2.27-1.21,9.32,9.32,0,0,0,1.78-1.95,28.91,28.91,0,0,0,1.6-2.65l3.47-6.36Z"/><polygon class="cls-1" points="113.58 6.89 107.91 17.27 101.63 17.27 106.38 6.89 113.58 6.89"/><polygon class="cls-1" points="101.63 17.27 96.31 17.27 94.18 6.89 100.28 6.89 101.63 17.27"/><path class="cls-1" d="M118.18,17.26h-6.64a3.87,3.87,0,0,1,6.64,0Z"/><path class="cls-1" d="M120.55,19.25a3.87,3.87,0,1,1-7.19-2H120A3.86,3.86,0,0,1,120.55,19.25Z"/><rect class="cls-1" x="8.52" y="6.22" width="5.58" height="12.36"/><path class="cls-2" d="M5.45,17.26l-1,5.4h9.86A15.07,15.07,0,0,0,18,22.24,9.05,9.05,0,0,0,20.91,21,5.87,5.87,0,0,0,22.8,19a5.45,5.45,0,0,0,.58-1.69Z"/><path class="cls-2" d="M20.59,13a4.09,4.09,0,0,0-1.14-.94,4.76,4.76,0,0,0-1.36-.51v-.06a6.21,6.21,0,0,0,3.07-1.88A5.13,5.13,0,0,0,22.37,6.1a4,4,0,0,0-.55-2.18,4.37,4.37,0,0,0-1.46-1.44,6,6,0,0,0-2-.8,10.48,10.48,0,0,0-2.22-.24H6.43L3.63,17.26h6.45l.57-3.2h2a2.81,2.81,0,0,1,1.56.37,1.24,1.24,0,0,1,.54,1.07,1.5,1.5,0,0,1-.24.88,1.68,1.68,0,0,1-.64.54,3.21,3.21,0,0,1-.95.27,8.07,8.07,0,0,1-1.11.07h9.71a7,7,0,0,0,.1-1.15,5,5,0,0,0-.29-1.71A4.44,4.44,0,0,0,20.59,13Zm-5.2-4.1a1.52,1.52,0,0,1-.54.5,2.15,2.15,0,0,1-.74.24,5.25,5.25,0,0,1-.79.06H11.4l.48-2.93h1.74a3,3,0,0,1,1.42.3,1,1,0,0,1,.56,1A1.48,1.48,0,0,1,15.39,8.94Z"/><path class="cls-2" d="M34.64,17.26a2.67,2.67,0,0,1-.72,1.06,2.45,2.45,0,0,1-1.69.62,2.27,2.27,0,0,1-.95-.19.86.86,0,0,1-.43-.88,1.91,1.91,0,0,1,.16-.61H25.17a6.57,6.57,0,0,0-.2,1.66,4,4,0,0,0,.42,1.9,3.74,3.74,0,0,0,1.1,1.29,4.61,4.61,0,0,0,1.51.73,6.09,6.09,0,0,0,1.68.24,6.81,6.81,0,0,0,2.45-.43,5.12,5.12,0,0,0,2-1.43h.06c0,.2,0,.46,0,.77s0,.53,0,.67h5.76c0-.26,0-.62,0-1.08a11.4,11.4,0,0,1,.17-1.34l.52-3Z"/><path class="cls-2" d="M39.52,12a14.67,14.67,0,0,1-.24,2.49l-.5,2.81h-6A2.42,2.42,0,0,0,33,16.7l.1-.51h-.4a10.19,10.19,0,0,0-1.4.09,5.06,5.06,0,0,0-1.16.28,2.16,2.16,0,0,0-.79.51.9.9,0,0,0-.15.19H23.36A4.12,4.12,0,0,1,24,15.9,5.74,5.74,0,0,1,26.2,14a11,11,0,0,1,3.22-1,24.8,24.8,0,0,1,3.83-.29.81.81,0,0,0,0-.2v-.13a1,1,0,0,0-.52-.91,2.63,2.63,0,0,0-1.36-.32,5,5,0,0,0-1.86.37,6.36,6.36,0,0,0-1.65,1H26.07L25,9.23A8.1,8.1,0,0,1,26.59,8a12.24,12.24,0,0,1,1.87-.88,10.51,10.51,0,0,1,1.95-.55,11.51,11.51,0,0,1,1.88-.17,8.55,8.55,0,0,1,5.42,1.45A5,5,0,0,1,39.52,12Z"/><path class="cls-2" d="M53.34,17.26l-.94,5.4h6.74l.94-5.4Zm-10.93,5.4h6.72l1-5.4H43.36Z"/><path class="cls-2" d="M59.15,11.18c0,.32,0,.65,0,1s-.08.68-.14,1l-.71,4.07H51.53l.52-3a3.31,3.31,0,0,0,.07-.55c0-.19,0-.35,0-.47a1.41,1.41,0,0,0-.33-1,1.33,1.33,0,0,0-1.05-.38,1.58,1.58,0,0,0-1.22.62,3.67,3.67,0,0,0-.73,1.78l-.53,2.93H41.54L42.82,10c.07-.38.16-.87.25-1.47s.15-1.13.19-1.62h7.65c0,.3-1.22.65-1.26,1s-.08.72-.12,1h.12a5.94,5.94,0,0,1,1.93-1.68,5.28,5.28,0,0,1,2.74-.73,5.72,5.72,0,0,1,2.24.4,4.21,4.21,0,0,1,1.5,1,3.83,3.83,0,0,1,.84,1.48A6,6,0,0,1,59.15,11.18Z"/><path class="cls-2" d="M63.18,17.26l-1,5.4h6.71l.92-5.4Zm14.08,0h-7.4l3,5.4h7.85Z"/><polygon class="cls-2" points="81.51 6.89 75.44 17.27 68.05 17.27 73.33 6.89 81.51 6.89"/><polygon class="cls-2" points="71.14 0 68.05 17.27 61.36 17.27 64.4 0 71.14 0"/><path class="cls-2" d="M96.31,17.26h-7a4.72,4.72,0,0,1,.63.28c.31.15.47.35.47.59a.56.56,0,0,1-.35.53,2.21,2.21,0,0,1-.94.16,5.54,5.54,0,0,1-3.44-1.56H83.63L82,21.34A8.4,8.4,0,0,0,85.35,23a14.63,14.63,0,0,0,3.6.48,11.9,11.9,0,0,0,2.62-.3,6.77,6.77,0,0,0,2.26-1,5.7,5.7,0,0,0,1.79-1.8,4.92,4.92,0,0,0,.71-2.69C96.33,17.56,96.32,17.41,96.31,17.26Z"/><path class="cls-2" d="M94.33,15.89a4.11,4.11,0,0,1,.34,1.37H87.5L87,17.09a13.39,13.39,0,0,1-1.87-.69,5.57,5.57,0,0,1-1.41-.93,3.74,3.74,0,0,1-.9-1.26,4.16,4.16,0,0,1-.31-1.68A5,5,0,0,1,83.1,10a5.54,5.54,0,0,1,1.71-1.83,7.68,7.68,0,0,1,2.4-1.07,10.23,10.23,0,0,1,2.68-.36,12.21,12.21,0,0,1,3.58.52,8,8,0,0,1,2.9,1.48l-3.54,4H91s-.78-1.29-1.36-1.29a2.46,2.46,0,0,0-1,.17.53.53,0,0,0-.37.52.51.51,0,0,0,.31.46,6.27,6.27,0,0,0,1.1.38,12.93,12.93,0,0,1,2,.67,6.32,6.32,0,0,1,1.58,1A4,4,0,0,1,94.33,15.89Z"/><path class="cls-2" d="M101.76,17.26,103,23.19a2.65,2.65,0,0,1-.74.78,2.82,2.82,0,0,1-1.73.46c-.3,0-.49.3-.75.22s-.58.18-.82.08l-1.15,4.64a9.67,9.67,0,0,0,1.46.34,13.4,13.4,0,0,0,2,.15,9.29,9.29,0,0,0,3-.43,6.88,6.88,0,0,0,2.27-1.21,9.06,9.06,0,0,0,1.78-1.95,28.86,28.86,0,0,0,1.61-2.65l3.47-6.36Z"/><polygon class="cls-2" points="117.21 6.89 111.54 17.27 105.26 17.27 110.02 6.89 117.21 6.89"/><polygon class="cls-2" points="105.26 17.27 99.94 17.27 97.82 6.89 103.92 6.89 105.26 17.27"/><path class="cls-2" d="M121.81,17.26h-6.64a3.87,3.87,0,0,1,6.64,0Z"/><path class="cls-2" d="M124.18,19.25a3.87,3.87,0,0,1-7.74,0,4,4,0,0,1,.55-2h6.64A3.86,3.86,0,0,1,124.18,19.25Z"/><path class="cls-3" d="M3.64,17.26l-1,5.4h9.86a15.07,15.07,0,0,0,3.66-.42A9,9,0,0,0,19.09,21,5.87,5.87,0,0,0,21,19a5.2,5.2,0,0,0,.58-1.69Z"/><path class="cls-3" d="M18.77,13a4,4,0,0,0-1.14-.94,4.76,4.76,0,0,0-1.36-.51v-.06a6.21,6.21,0,0,0,3.07-1.88A5.14,5.14,0,0,0,20.56,6.1,4,4,0,0,0,20,3.92a4.43,4.43,0,0,0-1.45-1.44,6.14,6.14,0,0,0-2-.8,10.48,10.48,0,0,0-2.22-.24H4.61L1.82,17.26H8.27l.57-3.2h2a2.83,2.83,0,0,1,1.56.37A1.26,1.26,0,0,1,13,15.5a1.5,1.5,0,0,1-.24.88,1.61,1.61,0,0,1-.64.54,3.15,3.15,0,0,1-.94.27,8.07,8.07,0,0,1-1.11.07h9.7a6.08,6.08,0,0,0,.1-1.15,5,5,0,0,0-.29-1.71A4.44,4.44,0,0,0,18.77,13Zm-5.2-4.1a1.44,1.44,0,0,1-.54.5,2.09,2.09,0,0,1-.73.24,5.46,5.46,0,0,1-.79.06H9.59l.48-2.93h1.74a3,3,0,0,1,1.42.3,1,1,0,0,1,.55,1A1.48,1.48,0,0,1,13.57,8.94Z"/><path class="cls-3" d="M32.83,17.26a2.69,2.69,0,0,1-.73,1.06,2.44,2.44,0,0,1-1.69.62,2.34,2.34,0,0,1-.95-.19.86.86,0,0,1-.43-.88,1.23,1.23,0,0,1,.15-.61H23.36a6.13,6.13,0,0,0-.21,1.66,3.92,3.92,0,0,0,.43,1.9,3.62,3.62,0,0,0,1.09,1.29,4.7,4.7,0,0,0,1.51.73,6.09,6.09,0,0,0,1.68.24,6.9,6.9,0,0,0,2.46-.43,5.12,5.12,0,0,0,2-1.43h.06c0,.2,0,.46,0,.77s0,.53,0,.67h5.75c0-.26,0-.62.05-1.08a11.42,11.42,0,0,1,.16-1.34l.53-3Z"/><path class="cls-3" d="M37.7,12a14.67,14.67,0,0,1-.24,2.49L37,17.26H31a3.05,3.05,0,0,0,.16-.56l.09-.51h-.39a10.45,10.45,0,0,0-1.41.09,4.84,4.84,0,0,0-1.15.28,2.2,2.2,0,0,0-.8.51,1.33,1.33,0,0,0-.14.19H21.54a4.12,4.12,0,0,1,.62-1.36A5.74,5.74,0,0,1,24.38,14a11.06,11.06,0,0,1,3.22-1,24.93,24.93,0,0,1,3.84-.29.81.81,0,0,0,0-.2v-.13a1,1,0,0,0-.53-.91,2.61,2.61,0,0,0-1.36-.32,5,5,0,0,0-1.86.37,6.36,6.36,0,0,0-1.65,1L23.13,9.23A8.7,8.7,0,0,1,24.77,8a12.7,12.7,0,0,1,1.87-.88,10.51,10.51,0,0,1,1.95-.55,11.53,11.53,0,0,1,1.89-.17,8.52,8.52,0,0,1,5.41,1.45A4.94,4.94,0,0,1,37.7,12Z"/><path class="cls-3" d="M51.53,17.26l-1,5.4h6.74l.94-5.4ZM40.6,22.66h6.71l1-5.4H41.54Z"/><path class="cls-3" d="M57.34,11.18c0,.32,0,.65-.05,1s-.07.68-.13,1l-.71,4.07H49.71l.52-3a3.31,3.31,0,0,0,.07-.55,4.29,4.29,0,0,0,0-.47,1.41,1.41,0,0,0-.33-1,1.33,1.33,0,0,0-1.05-.38,1.56,1.56,0,0,0-1.21.62A3.67,3.67,0,0,0,47,14.33l-.52,2.93H39.73L41,10c.08-.38.17-.87.25-1.47s.16-1.13.2-1.62h6.47c0,.3-.05.65-.09,1s-.08.72-.12,1h.12a6,6,0,0,1,1.94-1.68,5.28,5.28,0,0,1,2.74-.73,5.66,5.66,0,0,1,2.23.4,4.21,4.21,0,0,1,1.5,1,3.83,3.83,0,0,1,.84,1.48A6,6,0,0,1,57.34,11.18Z"/><path class="cls-3" d="M61.36,17.26l-1,5.4h6.71l.93-5.4Zm14.08,0H68.05l3,5.4h7.86Z"/><polygon class="cls-3" points="79.7 6.89 73.62 17.27 66.23 17.27 71.51 6.89 79.7 6.89"/><polygon class="cls-3" points="69.33 0 66.23 17.27 59.54 17.27 62.58 0 69.33 0"/><path class="cls-3" d="M94.67,17.26H87.5a5.56,5.56,0,0,1,.64.28.67.67,0,0,1,.46.59.55.55,0,0,1-.34.53,2.26,2.26,0,0,1-1,.16,5.32,5.32,0,0,1-1.89-.39,4.88,4.88,0,0,1-1.79-1.17l-3.42,4.08A8.33,8.33,0,0,0,83.54,23a14.55,14.55,0,0,0,3.59.48,12,12,0,0,0,2.63-.3,7.53,7.53,0,0,0,2.42-1,5.73,5.73,0,0,0,1.8-1.8,4.92,4.92,0,0,0,.71-2.69C94.69,17.56,94.68,17.41,94.67,17.26Z"/><path class="cls-3" d="M92.51,15.89a3.89,3.89,0,0,1,.34,1.37H85.69l-.55-.17a13.54,13.54,0,0,1-1.88-.69,5.57,5.57,0,0,1-1.41-.93A3.58,3.58,0,0,1,81,14.21a4.16,4.16,0,0,1-.32-1.68A5,5,0,0,1,81.28,10,5.54,5.54,0,0,1,83,8.12a7.68,7.68,0,0,1,2.4-1.07,10.29,10.29,0,0,1,2.68-.36,12.16,12.16,0,0,1,3.58.52,7.48,7.48,0,0,1,2.81,1.48l-3.45,4a4,4,0,0,0-1.41-.91,4.59,4.59,0,0,0-1.77-.38,2.44,2.44,0,0,0-1,.17.53.53,0,0,0-.37.52.5.5,0,0,0,.31.46,6.09,6.09,0,0,0,1.09.38,13.06,13.06,0,0,1,2,.67,6.25,6.25,0,0,1,1.57,1A4,4,0,0,1,92.51,15.89Z"/><path class="cls-3" d="M99.94,17.26l1.22,5.93a2.72,2.72,0,0,1-.75.78,2.79,2.79,0,0,1-1.72.46,3.22,3.22,0,0,1-.84-.11,6,6,0,0,1-.75-.25L96,29.37a9.54,9.54,0,0,0,1.47.34,13.3,13.3,0,0,0,2,.15,9.33,9.33,0,0,0,3-.43,6.93,6.93,0,0,0,2.26-1.21,9.09,9.09,0,0,0,1.79-1.95,28.91,28.91,0,0,0,1.6-2.65l3.47-6.36Z"/><polygon class="cls-3" points="115.39 6.89 109.73 17.27 103.44 17.27 108.2 6.89 115.39 6.89"/><polygon class="cls-3" points="103.44 17.27 98.13 17.27 96 6.89 102.1 6.89 103.44 17.27"/><path class="cls-3" d="M120,17.26h-6.64a3.87,3.87,0,0,1,6.64,0Z"/><path class="cls-3" d="M122.36,19.25a3.87,3.87,0,1,1-7.18-2h6.63A3.86,3.86,0,0,1,122.36,19.25Z"/></svg>