<svg id="图层_1" data-name="图层 1" xmlns="http://www.w3.org/2000/svg" xmlns:xlink="http://www.w3.org/1999/xlink" viewBox="0 0 257.64 192.43"><defs><style>.cls-1{fill:url(#未命名的渐变_23);}.cls-2{fill:#111c3a;}.cls-3{fill:#19c9ff;}</style><linearGradient id="未命名的渐变_23" x1="-88.35" y1="48.85" x2="169.29" y2="48.85" gradientUnits="userSpaceOnUse"><stop offset="0" stop-color="aqua"/><stop offset="1" stop-color="#7800ff"/></linearGradient></defs><path class="cls-1" d="M257.64,30.27a10,10,0,0,0-10-10H10a10,10,0,0,0-10,10V77.44H257.64Z"/><path class="cls-2" d="M0,77.44v105a10,10,0,0,0,10,10H247.64a10,10,0,0,0,10-10v-105Z"/><path class="cls-3" d="M204.11,14.65,185,25.28l-6.21,23.64-9,8.34L182.28,68l8.29-10.5C194.59,54,199,51.61,200.9,44L202,38.88l7.55-10.55s2.32-2.85-.43-4.48c-2.52-1.5-14.62,8.17-14.62,8.17l-.75-1.12s6.94-5.17,10.31-6.87Z"/><path class="cls-3" d="M205.16,6.36V23.71a8.13,8.13,0,0,1,3.23-1V13.94h2.35l2.39,4.6,1,2.14h.06a30.43,30.43,0,0,1-.31-3.56V13.94H216v9.62h-2.35l-2.38-4.64-1-2.11h-.06c.1,1.07.29,2.39.29,3.56v3.11c2.53,2.13.07,5.46.07,5.46l-5.49,7.78v0h23.37a6.36,6.36,0,0,0,6.36-6.36v-24A6.36,6.36,0,0,0,228.53,0h-17A6.36,6.36,0,0,0,205.16,6.36Zm19,9.49h-3.83V18h3.29v1.93h-3.29v3.67H218V13.94h6.15Zm8.21,0h-2.62v7.71h-2.31V15.85h-2.6V13.94h7.53Z"/></svg>