<svg id="图层_1" data-name="图层 1" xmlns="http://www.w3.org/2000/svg" viewBox="0 0 84.28 131.46"><defs><style>.cls-1{fill:#214182;}</style></defs><path class="cls-1" d="M24.54,54H13.24V29.32a29.33,29.33,0,0,1,58.65,0V42.9H60.59V29.32a18,18,0,1,0-36.05,0Z"/><path class="cls-1" d="M69.61,47.18H14.67A14.71,14.71,0,0,0,0,61.85v54.94a14.71,14.71,0,0,0,14.67,14.67H69.61a14.71,14.71,0,0,0,14.67-14.67V61.85A14.71,14.71,0,0,0,69.61,47.18ZM42.14,116.72a27.4,27.4,0,1,1,27.4-27.4A27.43,27.43,0,0,1,42.14,116.72Z"/><path class="cls-1" d="M45.86,91.17a5,5,0,0,0-1.67-.44c-1.34-.08-2.69,0-4-.07-.28,0-.38.08-.38.43q0,3.27,0,6.53c0,.13,0,.25,0,.42,1.11,0,2.18,0,3.25,0a8.52,8.52,0,0,0,1.89-.25,3.42,3.42,0,0,0,2.61-2.89C47.89,93.07,47.34,91.8,45.86,91.17Z"/><path class="cls-1" d="M40.15,87.09c1.05,0,2.11,0,3.16,0a2.47,2.47,0,0,0,1.56-.54,3.89,3.89,0,0,0,.92-4.71,3.06,3.06,0,0,0-2-1.32A16.26,16.26,0,0,0,40,80.31c-.22,0-.22.16-.22.34v3c0,1,0,2,0,3C39.76,87,39.87,87.1,40.15,87.09Z"/><path class="cls-1" d="M42.14,64.18A25.14,25.14,0,1,0,67.28,89.32,25.16,25.16,0,0,0,42.14,64.18ZM53.29,94.62a10.19,10.19,0,0,1-.78,3.56,5.92,5.92,0,0,1-3.24,3.16A10.27,10.27,0,0,1,45,102c-.31,0-.39.1-.39.46,0,1.59,0,3.18,0,4.76,0,.33-.06.47-.37.46-.75,0-1.5,0-2.26,0-.25,0-.32-.1-.32-.4,0-1.62,0-3.24,0-4.87,0-.31-.07-.42-.34-.41-.52,0-1,0-1.6,0v.48c0,1.59,0,3.17,0,4.76,0,.33-.08.44-.36.43-.74,0-1.48,0-2.23,0-.27,0-.37-.08-.36-.42,0-1.61,0-3.22,0-4.84,0-.33-.07-.42-.36-.42-1.64,0-3.29,0-4.94,0-.27,0-.37-.08-.36-.42,0-1,.07-2,.08-2.94,0-.25.1-.3.28-.29h1.72c1,0,1.37-.47,1.38-1.63V81.51c0-1-.26-1.33-1.06-1.39a20.74,20.74,0,0,0-2.23,0c-.29,0-.38-.11-.38-.45,0-.9,0-1.79,0-2.68,0-.37.07-.5.41-.5,1.69,0,3.37,0,5.06,0l.39,0V76c0-1.55,0-3.1,0-4.64,0-.34.09-.44.36-.43.75,0,1.51,0,2.26,0,.25,0,.33.09.33.39,0,1.59,0,3.18,0,4.76,0,.31.07.42.34.41.52,0,1,0,1.6,0V76c0-1.54,0-3.07,0-4.61,0-.33.08-.44.36-.43.75,0,1.51,0,2.26,0,.25,0,.33.09.33.39,0,1.61,0,3.22,0,4.84,0,.3.07.41.33.44a10.25,10.25,0,0,1,4,1.28,5.36,5.36,0,0,1,2.54,3,6.44,6.44,0,0,1-1.82,6.88l-.3.25.49.22C52.29,89.31,53.49,91.59,53.29,94.62Z"/></svg>