<svg id="图层_1" data-name="图层 1" xmlns="http://www.w3.org/2000/svg" viewBox="0 0 157.14 37.78"><defs><style>.cls-1{fill:#02ffff;}.cls-2{fill:#70f;}.cls-3{fill:#fff;}</style></defs><path class="cls-1" d="M2.3,21.85,1.09,28.68H13.57a19.29,19.29,0,0,0,4.63-.53,11.63,11.63,0,0,0,3.66-1.57A7.6,7.6,0,0,0,24.25,24,6.81,6.81,0,0,0,25,21.85Z"/><path class="cls-1" d="M21.46,16.5A5.16,5.16,0,0,0,20,15.31a5.87,5.87,0,0,0-1.72-.65v-.07a7.89,7.89,0,0,0,3.89-2.37,6.57,6.57,0,0,0,1.53-4.51A5,5,0,0,0,23,5a5.52,5.52,0,0,0-1.84-1.82,7.92,7.92,0,0,0-2.54-1,13.42,13.42,0,0,0-2.81-.3H3.54L0,21.85H8.16l.72-4.06h2.58a3.53,3.53,0,0,1,2,.47,1.56,1.56,0,0,1,.68,1.35,1.93,1.93,0,0,1-.31,1.12,2,2,0,0,1-.81.68,3.77,3.77,0,0,1-1.19.34,9.36,9.36,0,0,1-1.41.1H22.69a8.66,8.66,0,0,0,.12-1.47,6.28,6.28,0,0,0-.37-2.16A5.59,5.59,0,0,0,21.46,16.5Zm-6.59-5.18a1.85,1.85,0,0,1-.68.62,2.49,2.49,0,0,1-.93.31,6.85,6.85,0,0,1-1,.08H9.83l.61-3.72h2.2a3.69,3.69,0,0,1,1.8.39,1.31,1.31,0,0,1,.7,1.26A1.92,1.92,0,0,1,14.87,11.32Z"/><path class="cls-1" d="M39.19,21.85a3.28,3.28,0,0,1-.87,1.33,3.1,3.1,0,0,1-2.14.79,3,3,0,0,1-1.2-.24,1.11,1.11,0,0,1-.54-1.12,1.45,1.45,0,0,1,.19-.76H27.26A7.62,7.62,0,0,0,27,23.94a5.19,5.19,0,0,0,.53,2.41A4.79,4.79,0,0,0,28.92,28a6.17,6.17,0,0,0,1.91.93,7.82,7.82,0,0,0,2.13.3,8.64,8.64,0,0,0,3.11-.55,6.62,6.62,0,0,0,2.5-1.8h.07c0,.25,0,.57,0,1s0,.68,0,.86h7.28c0-.33,0-.78.06-1.37a13.38,13.38,0,0,1,.21-1.7l.66-3.76Z"/><path class="cls-1" d="M45.41,15.14a18.89,18.89,0,0,1-.3,3.15l-.63,3.56H36.94a3.17,3.17,0,0,0,.2-.72l.12-.64h-.5A12.51,12.51,0,0,0,35,20.6a5.67,5.67,0,0,0-1.46.36,2.83,2.83,0,0,0-1,.64,1.44,1.44,0,0,0-.18.25H25a5.46,5.46,0,0,1,.78-1.73,7.35,7.35,0,0,1,2.81-2.37,14.05,14.05,0,0,1,4.08-1.23,31.51,31.51,0,0,1,4.85-.36.85.85,0,0,0,0-.25v-.17a1.29,1.29,0,0,0-.66-1.16,3.38,3.38,0,0,0-1.73-.39c-.81,0-2.14,1.74-2.14,1.74h-2.3L27,11.69A10.32,10.32,0,0,1,29,10.15,15.46,15.46,0,0,1,31.41,9a13.52,13.52,0,0,1,2.47-.68,12.62,12.62,0,0,1,2.39-.23q4.56,0,6.85,1.84A6.26,6.26,0,0,1,45.41,15.14Z"/><path class="cls-1" d="M62.91,21.85l-1.2,6.83h8.53l1.19-6.83ZM49.07,28.68h8.5l1.23-6.83H50.27Z"/><path class="cls-1" d="M70.26,14.15c0,.4,0,.83-.06,1.27s-.1.87-.17,1.27l-.9,5.16H60.61l.65-3.76a3.81,3.81,0,0,0,.1-.7c0-.24,0-.43,0-.58A1.81,1.81,0,0,0,61,15.57a1.7,1.7,0,0,0-1.32-.47,2,2,0,0,0-1.54.78,4.64,4.64,0,0,0-.93,2.25l-.67,3.72H48l1.61-9.22c.1-.48.21-1.1.32-1.86s.2-1.44.25-2h8.19c0,.38-.06.82-.11,1.31s-.1.92-.15,1.28h.15a7.72,7.72,0,0,1,2.45-2.13,6.76,6.76,0,0,1,3.47-.91A7.16,7.16,0,0,1,67,8.76a5.41,5.41,0,0,1,1.9,1.31A4.75,4.75,0,0,1,69.93,12,7.37,7.37,0,0,1,70.26,14.15Z"/><path class="cls-1" d="M75.35,21.85l-1.2,6.83h8.49l1.17-6.83Zm17.82,0H83.81l3.28,6.83h10.5Z"/><polygon class="cls-1" points="98.55 8.72 90.87 21.85 81.51 21.85 88.19 8.72 98.55 8.72"/><polygon class="cls-1" points="85.43 0 81.51 21.85 73.05 21.85 76.89 0 85.43 0"/><path class="cls-1" d="M117.5,21.85h-9.07s-.27.54,0,.66,1.2.39,1.2.69.08.27-.21.41a2.81,2.81,0,0,1-1.2.21c-.73,0-2.36-2-2.36-2h-2.3L99.2,27a10.55,10.55,0,0,0,4.21,2.12,18.79,18.79,0,0,0,4.56.61,15.22,15.22,0,0,0,3.31-.38,9.74,9.74,0,0,0,3.08-1.25,7.16,7.16,0,0,0,2.27-2.28,6.27,6.27,0,0,0,.89-3.41C117.52,22.22,117.51,22,117.5,21.85Z"/><path class="cls-1" d="M114.77,20.1a5.23,5.23,0,0,1,.43,1.75h-9.37a11.69,11.69,0,0,1-4.55-2.28A5.07,5.07,0,0,1,100.15,18a5.22,5.22,0,0,1-.4-2.13,6.44,6.44,0,0,1,.81-3.26,7,7,0,0,1,2.17-2.31,9.72,9.72,0,0,1,3-1.36,12.76,12.76,0,0,1,3.39-.46,15.63,15.63,0,0,1,4.54.66A9.58,9.58,0,0,1,117.24,11l-2.07,5h-2.3a5.09,5.09,0,0,0-1.78-1.16,5.93,5.93,0,0,0-2.24-.47,3.26,3.26,0,0,0-1.23.2.71.71,0,0,0-.48.67.66.66,0,0,0,.4.59,8.91,8.91,0,0,0,1.39.47,15.68,15.68,0,0,1,2.56.85,8.31,8.31,0,0,1,2,1.24A5.22,5.22,0,0,1,114.77,20.1Z"/><path class="cls-1" d="M124.18,21.85l1.53,7.5a3.52,3.52,0,0,1-.94,1,3.09,3.09,0,0,1-1.86.54.77.77,0,0,0,0-.41h-2.3l-1.45,6.71a12.2,12.2,0,0,0,1.86.42,15,15,0,0,0,2.5.19,12.41,12.41,0,0,0,3.82-.53,9,9,0,0,0,2.86-1.54,11.39,11.39,0,0,0,2.26-2.46,36.27,36.27,0,0,0,2-3.36l4.39-8Z"/><polygon class="cls-1" points="143.73 8.72 136.55 21.85 128.6 21.85 134.63 8.72 143.73 8.72"/><polygon class="cls-1" points="128.6 21.85 121.88 21.85 119.19 8.72 126.9 8.72 128.6 21.85"/><path class="cls-1" d="M149.55,21.85h-8.4a4.9,4.9,0,0,1,8.4,0Z"/><path class="cls-1" d="M152.55,24.36a4.9,4.9,0,1,1-9.1-2.51h8.4A4.85,4.85,0,0,1,152.55,24.36Z"/><rect class="cls-1" x="10.78" y="7.88" width="7.06" height="15.64"/><path class="cls-2" d="M6.9,21.85,5.69,28.68H18.17a19.29,19.29,0,0,0,4.63-.53,11.73,11.73,0,0,0,3.66-1.57A7.6,7.6,0,0,0,28.85,24a6.55,6.55,0,0,0,.73-2.13Z"/><path class="cls-2" d="M26.06,16.5a5.16,5.16,0,0,0-1.45-1.19,6,6,0,0,0-1.72-.65v-.07a7.89,7.89,0,0,0,3.89-2.37,6.57,6.57,0,0,0,1.53-4.51A5,5,0,0,0,27.61,5a5.52,5.52,0,0,0-1.84-1.82,7.92,7.92,0,0,0-2.54-1,13.42,13.42,0,0,0-2.81-.3H8.13l-3.53,20h8.16l.72-4.06h2.58a3.47,3.47,0,0,1,2,.47,1.55,1.55,0,0,1,.69,1.35,1.93,1.93,0,0,1-.31,1.12,2,2,0,0,1-.81.68,3.77,3.77,0,0,1-1.19.34,9.36,9.36,0,0,1-1.41.1H27.28a8.66,8.66,0,0,0,.12-1.47A6.28,6.28,0,0,0,27,18.22,5.8,5.8,0,0,0,26.06,16.5Zm-6.59-5.18a1.85,1.85,0,0,1-.68.62,2.55,2.55,0,0,1-.93.31,7,7,0,0,1-1,.08H14.43L15,8.61h2.2A3.69,3.69,0,0,1,19,9a1.33,1.33,0,0,1,.7,1.26A1.92,1.92,0,0,1,19.47,11.32Z"/><path class="cls-2" d="M43.84,21.85a3.39,3.39,0,0,1-.92,1.33,3.1,3.1,0,0,1-2.14.79,3,3,0,0,1-1.2-.24A1.11,1.11,0,0,1,39,22.61a2.42,2.42,0,0,1,.21-.76H31.86a7.62,7.62,0,0,0-.26,2.09,5.19,5.19,0,0,0,.53,2.41A4.79,4.79,0,0,0,33.52,28a6.17,6.17,0,0,0,1.91.93,7.82,7.82,0,0,0,2.13.3,8.55,8.55,0,0,0,3.1-.55,6.57,6.57,0,0,0,2.51-1.8h.07c0,.25,0,.57-.05,1s0,.68,0,.86h7.28c0-.33,0-.78.06-1.37a13.38,13.38,0,0,1,.21-1.7l.66-3.76Z"/><path class="cls-2" d="M50,15.14a18.89,18.89,0,0,1-.3,3.15l-.63,3.56H41.54a3.17,3.17,0,0,0,.2-.72l.12-.64h-.5a12.51,12.51,0,0,0-1.78.11,5.67,5.67,0,0,0-1.46.36,2.83,2.83,0,0,0-1,.64,1.44,1.44,0,0,0-.18.25H29.56a5.24,5.24,0,0,1,.78-1.73,7.35,7.35,0,0,1,2.81-2.37,14.05,14.05,0,0,1,4.08-1.23,31.51,31.51,0,0,1,4.85-.36.85.85,0,0,0,0-.25v-.17a1.29,1.29,0,0,0-.66-1.16,3.41,3.41,0,0,0-1.73-.39,6,6,0,0,0-2.35.47,8.12,8.12,0,0,0-2.09,1.27H33l-1.42-4.24a10.32,10.32,0,0,1,2.07-1.54A15,15,0,0,1,36,9a13.52,13.52,0,0,1,2.47-.68,12.62,12.62,0,0,1,2.39-.23q4.55,0,6.85,1.84A6.29,6.29,0,0,1,50,15.14Z"/><path class="cls-2" d="M67.51,21.85l-1.2,6.83h8.53L76,21.85ZM53.67,28.68h8.5l1.23-6.83H54.87Z"/><path class="cls-2" d="M74.86,14.15c0,.4,0,.83-.06,1.27s-.1.87-.17,1.27l-.9,5.16H65.21l.65-3.76a4.91,4.91,0,0,0,.1-.7c0-.24,0-.43,0-.58a1.81,1.81,0,0,0-.42-1.24,1.71,1.71,0,0,0-1.33-.47,2,2,0,0,0-1.53.78,4.64,4.64,0,0,0-.93,2.25l-.67,3.72H52.57l1.61-9.22c.1-.48.21-1.1.32-1.86s.2-1.44.25-2h9.67c0,.38-1.54.82-1.59,1.31s-.1.92-.15,1.28h.15a7.72,7.72,0,0,1,2.45-2.13,6.76,6.76,0,0,1,3.47-.91,7.16,7.16,0,0,1,2.82.49,5.41,5.41,0,0,1,1.9,1.31A4.88,4.88,0,0,1,74.53,12,7.37,7.37,0,0,1,74.86,14.15Z"/><path class="cls-2" d="M80,21.85l-1.2,6.83h8.49l1.17-6.83Zm17.82,0H88.41l3.84,6.83h9.94Z"/><polygon class="cls-2" points="103.15 8.72 95.47 21.85 86.11 21.85 92.79 8.72 103.15 8.72"/><polygon class="cls-2" points="90.03 0 86.11 21.85 77.65 21.85 81.49 0 90.03 0"/><path class="cls-2" d="M121.88,21.85H113a6.87,6.87,0,0,1,.8.34.88.88,0,0,1,.59.76.7.7,0,0,1-.43.66,2.84,2.84,0,0,1-1.2.21,7.09,7.09,0,0,1-4.36-2h-2.6l-2,5.16A10.55,10.55,0,0,0,108,29.13a18.77,18.77,0,0,0,4.55.61,15.24,15.24,0,0,0,3.32-.38,8.42,8.42,0,0,0,2.85-1.25A7.19,7.19,0,0,0,121,25.83a6.27,6.27,0,0,0,.89-3.41C121.9,22.22,121.89,22,121.88,21.85Z"/><path class="cls-2" d="M119.37,20.1a5.23,5.23,0,0,1,.43,1.75h-9.07l-.69-.23a15.24,15.24,0,0,1-2.38-.87,7.16,7.16,0,0,1-1.78-1.18A4.58,4.58,0,0,1,104.75,18a5.22,5.22,0,0,1-.4-2.13,6.44,6.44,0,0,1,.81-3.26,7.12,7.12,0,0,1,2.16-2.31,9.88,9.88,0,0,1,3-1.36,12.7,12.7,0,0,1,3.39-.46,15.51,15.51,0,0,1,4.53.66A10,10,0,0,1,122,11l-4.48,5h-2.3s-1-1.63-1.72-1.63a3.35,3.35,0,0,0-1.24.2.71.71,0,0,0-.47.67.66.66,0,0,0,.4.59,9.09,9.09,0,0,0,1.38.47,15.36,15.36,0,0,1,2.56.85,8.18,8.18,0,0,1,2,1.24A5.22,5.22,0,0,1,119.37,20.1Z"/><path class="cls-2" d="M128.77,21.85l1.54,7.5a3.52,3.52,0,0,1-.94,1,3.59,3.59,0,0,1-2.19.59c-.37,0-.62.37-.94.28s-.74.23-1,.1l-1.47,5.87a11.93,11.93,0,0,0,1.86.42,14.86,14.86,0,0,0,2.5.19,12.41,12.41,0,0,0,3.82-.53,9,9,0,0,0,2.86-1.54A11.39,11.39,0,0,0,137,33.25a36.27,36.27,0,0,0,2-3.36l4.39-8Z"/><polygon class="cls-2" points="148.33 8.72 141.16 21.85 133.2 21.85 139.22 8.72 148.33 8.72"/><polygon class="cls-2" points="133.2 21.85 126.47 21.85 123.78 8.72 131.5 8.72 133.2 21.85"/><path class="cls-2" d="M154.15,21.85h-8.4a4.9,4.9,0,0,1,8.4,0Z"/><path class="cls-2" d="M157.14,24.36a4.89,4.89,0,1,1-9.09-2.51h8.4A4.85,4.85,0,0,1,157.14,24.36Z"/><path class="cls-3" d="M4.6,21.85,3.39,28.68H15.87a19.29,19.29,0,0,0,4.63-.53,11.53,11.53,0,0,0,3.66-1.57A7.6,7.6,0,0,0,26.55,24a6.81,6.81,0,0,0,.74-2.13Z"/><path class="cls-3" d="M23.76,16.5a5.16,5.16,0,0,0-1.45-1.19,5.87,5.87,0,0,0-1.72-.65v-.07a7.89,7.89,0,0,0,3.89-2.37A6.58,6.58,0,0,0,26,7.71,5,5,0,0,0,25.31,5a5.52,5.52,0,0,0-1.84-1.82,7.83,7.83,0,0,0-2.54-1,13.42,13.42,0,0,0-2.81-.3H5.84l-3.54,20h8.16l.73-4.06h2.57a3.53,3.53,0,0,1,2,.47,1.56,1.56,0,0,1,.68,1.35,1.92,1.92,0,0,1-.3,1.12,2.1,2.1,0,0,1-.82.68,3.77,3.77,0,0,1-1.19.34,9.36,9.36,0,0,1-1.41.1H25a8.66,8.66,0,0,0,.12-1.47,6.52,6.52,0,0,0-.36-2.16A5.61,5.61,0,0,0,23.76,16.5Zm-6.58-5.18a2,2,0,0,1-.69.62,2.49,2.49,0,0,1-.93.31,6.85,6.85,0,0,1-1,.08H12.13l.61-3.72h2.2a3.69,3.69,0,0,1,1.8.39,1.31,1.31,0,0,1,.7,1.26A2,2,0,0,1,17.18,11.32Z"/><path class="cls-3" d="M41.54,21.85a3.39,3.39,0,0,1-.92,1.33,3.08,3.08,0,0,1-2.14.79,3,3,0,0,1-1.2-.24,1.11,1.11,0,0,1-.54-1.12,1.45,1.45,0,0,1,.19-.76H29.56a7.62,7.62,0,0,0-.26,2.09,5.19,5.19,0,0,0,.53,2.41A4.91,4.91,0,0,0,31.22,28a6.28,6.28,0,0,0,1.91.93,7.82,7.82,0,0,0,2.13.3,8.64,8.64,0,0,0,3.11-.55,6.62,6.62,0,0,0,2.5-1.8H41q0,.38-.06,1c0,.4,0,.68,0,.86h7.29c0-.33,0-.78.05-1.37a15.48,15.48,0,0,1,.21-1.7l.66-3.76Z"/><path class="cls-3" d="M47.71,15.14a18.89,18.89,0,0,1-.3,3.15l-.63,3.56H39.24a3.17,3.17,0,0,0,.2-.72l.12-.64h-.5a12.51,12.51,0,0,0-1.78.11,5.89,5.89,0,0,0-1.46.36,2.7,2.7,0,0,0-1,.64,1.1,1.1,0,0,0-.19.25H27.26a5.26,5.26,0,0,1,.79-1.73,7.31,7.31,0,0,1,2.8-2.37,14.15,14.15,0,0,1,4.08-1.23,31.51,31.51,0,0,1,4.85-.36.85.85,0,0,0,0-.25v-.17a1.29,1.29,0,0,0-.66-1.16,3.38,3.38,0,0,0-1.73-.39,6,6,0,0,0-2.35.47A8.29,8.29,0,0,0,33,15.93l-3.72-4.24a10.39,10.39,0,0,1,2.08-1.54A14.62,14.62,0,0,1,33.72,9a13.64,13.64,0,0,1,2.46-.68,12.69,12.69,0,0,1,2.39-.23q4.56,0,6.85,1.84A6.26,6.26,0,0,1,47.71,15.14Z"/><path class="cls-3" d="M65.21,21.85,64,28.68h8.53l1.19-6.83ZM51.37,28.68h8.5l1.23-6.83H52.57Z"/><path class="cls-3" d="M72.56,14.15c0,.4,0,.83-.06,1.27a12.18,12.18,0,0,1-.17,1.27l-.9,5.16H62.91l.66-3.76a3.82,3.82,0,0,0,.09-.7c0-.24,0-.43,0-.58a1.81,1.81,0,0,0-.42-1.24,1.7,1.7,0,0,0-1.32-.47,2,2,0,0,0-1.54.78,4.64,4.64,0,0,0-.93,2.25l-.67,3.72H50.27l1.61-9.22q.15-.72.33-1.86c.11-.75.19-1.44.24-2h8.19c0,.38-.06.82-.11,1.31s-.1.92-.15,1.28h.15A7.72,7.72,0,0,1,63,9.18a6.76,6.76,0,0,1,3.47-.91,7.24,7.24,0,0,1,2.83.49,5.36,5.36,0,0,1,1.89,1.31A4.75,4.75,0,0,1,72.23,12,7.37,7.37,0,0,1,72.56,14.15Z"/><path class="cls-3" d="M77.65,21.85l-1.2,6.83h8.49l1.17-6.83Zm17.82,0H86.11L90,28.68h9.94Z"/><polygon class="cls-3" points="100.85 8.72 93.17 21.85 83.81 21.85 90.5 8.72 100.85 8.72"/><polygon class="cls-3" points="87.73 0 83.81 21.85 75.35 21.85 79.19 0 87.73 0"/><path class="cls-3" d="M119.8,21.85h-9.07a7.07,7.07,0,0,1,.81.34.88.88,0,0,1,.58.76.69.69,0,0,1-.43.66,2.81,2.81,0,0,1-1.2.21,6.71,6.71,0,0,1-2.39-.49,6.42,6.42,0,0,1-2.27-1.48L101.5,27a10.52,10.52,0,0,0,4.22,2.12,18.64,18.64,0,0,0,4.55.61,15.22,15.22,0,0,0,3.31-.38,9.64,9.64,0,0,0,3.08-1.25,7.16,7.16,0,0,0,2.27-2.28,6.19,6.19,0,0,0,.89-3.41C119.82,22.22,119.81,22,119.8,21.85Z"/><path class="cls-3" d="M117.07,20.1a5,5,0,0,1,.43,1.75h-9.07c-.21-.08-.44-.15-.69-.23a14.75,14.75,0,0,1-2.37-.87,7,7,0,0,1-1.79-1.18A4.58,4.58,0,0,1,102.45,18a5.22,5.22,0,0,1-.4-2.13,6.44,6.44,0,0,1,.81-3.26A7.15,7.15,0,0,1,105,10.28a9.72,9.72,0,0,1,3-1.36,12.76,12.76,0,0,1,3.39-.46,15.63,15.63,0,0,1,4.54.66A9.58,9.58,0,0,1,119.54,11l-4.37,5a5.09,5.09,0,0,0-1.78-1.16,5.89,5.89,0,0,0-2.24-.47,3.26,3.26,0,0,0-1.23.2.71.71,0,0,0-.48.67.66.66,0,0,0,.4.59,8.91,8.91,0,0,0,1.39.47,15.68,15.68,0,0,1,2.56.85,8.31,8.31,0,0,1,2,1.24A5.08,5.08,0,0,1,117.07,20.1Z"/><path class="cls-3" d="M126.48,21.85l1.53,7.5a3.38,3.38,0,0,1-.94,1,3.57,3.57,0,0,1-2.18.59,3.94,3.94,0,0,1-1.06-.14,7.06,7.06,0,0,1-1-.32l-1.44,6.71a12,12,0,0,0,1.85.42,15,15,0,0,0,2.51.19,12.39,12.39,0,0,0,3.81-.53,9,9,0,0,0,2.87-1.54,11.61,11.61,0,0,0,2.25-2.46,36.27,36.27,0,0,0,2-3.36l4.4-8Z"/><polygon class="cls-3" points="146.03 8.72 138.85 21.85 130.91 21.85 136.93 8.72 146.03 8.72"/><polygon class="cls-3" points="130.91 21.85 124.18 21.85 121.49 8.72 129.2 8.72 130.91 21.85"/><path class="cls-3" d="M151.85,21.85h-8.4a4.9,4.9,0,0,1,8.4,0Z"/><path class="cls-3" d="M154.85,24.36a4.9,4.9,0,0,1-9.79,0,4.94,4.94,0,0,1,.69-2.51h8.4A4.85,4.85,0,0,1,154.85,24.36Z"/></svg>