<svg id="图层_1" data-name="图层 1" xmlns="http://www.w3.org/2000/svg" xmlns:xlink="http://www.w3.org/1999/xlink" viewBox="0 0 538.06 481.44"><defs><style>.cls-1,.cls-5{fill:none;}.cls-2{fill:url(#未命名的渐变_23);}.cls-3{clip-path:url(#clip-path);}.cls-4{opacity:0.21;}.cls-5{stroke:#000;stroke-miterlimit:10;stroke-width:0.53px;}.cls-6{fill:#1dc2ff;}</style><linearGradient id="未命名的渐变_23" x1="0.18" y1="240.72" x2="537.89" y2="240.72" gradientUnits="userSpaceOnUse"><stop offset="0" stop-color="aqua"/><stop offset="1" stop-color="#7800ff"/></linearGradient><clipPath id="clip-path"><rect class="cls-1" x="0.18" y="0.2" width="537.71" height="481.05" rx="20"/></clipPath></defs><rect class="cls-2" x="0.18" y="0.2" width="537.71" height="481.05" rx="20"/><g class="cls-3"><g class="cls-4"><line class="cls-5" x1="160.79" y1="143.88" x2="160.79" y2="337.56"/><line class="cls-5" x1="187.85" y1="143.88" x2="187.85" y2="337.56"/><line class="cls-5" x1="214.91" y1="143.88" x2="214.91" y2="337.56"/><line class="cls-5" x1="241.97" y1="143.88" x2="241.97" y2="337.56"/><line class="cls-5" x1="269.03" y1="143.88" x2="269.03" y2="337.56"/><line class="cls-5" x1="296.09" y1="143.88" x2="296.09" y2="337.56"/><line class="cls-5" x1="323.15" y1="143.88" x2="323.15" y2="337.56"/><line class="cls-5" x1="350.21" y1="143.88" x2="350.21" y2="337.56"/><line class="cls-5" x1="377.27" y1="143.88" x2="377.27" y2="337.56"/><line class="cls-5" x1="377.27" y1="143.88" x2="160.79" y2="143.88"/><line class="cls-5" x1="377.27" y1="168.09" x2="160.79" y2="168.09"/><line class="cls-5" x1="377.27" y1="192.3" x2="160.79" y2="192.3"/><line class="cls-5" x1="377.27" y1="216.51" x2="160.79" y2="216.51"/><line class="cls-5" x1="377.27" y1="240.72" x2="160.79" y2="240.72"/><line class="cls-5" x1="377.27" y1="264.93" x2="160.79" y2="264.93"/><line class="cls-5" x1="377.27" y1="289.14" x2="160.79" y2="289.14"/><line class="cls-5" x1="377.27" y1="313.35" x2="160.79" y2="313.35"/><line class="cls-5" x1="377.27" y1="337.56" x2="160.79" y2="337.56"/><line class="cls-5" x1="0.18" y1="0.2" x2="0.18" y2="481.24"/><line class="cls-5" x1="42.24" y1="37.83" x2="42.24" y2="443.61"/><line class="cls-5" x1="72.92" y1="65.28" x2="72.92" y2="416.16"/><line class="cls-5" x1="96.29" y1="86.19" x2="96.29" y2="395.26"/><line class="cls-5" x1="114.69" y1="102.64" x2="114.69" y2="378.8"/><line class="cls-5" x1="129.54" y1="115.93" x2="129.54" y2="365.51"/><line class="cls-5" x1="141.79" y1="126.88" x2="141.79" y2="354.56"/><line class="cls-5" x1="152.05" y1="136.07" x2="152.05" y2="345.37"/><line class="cls-5" x1="160.79" y1="143.88" x2="0.18" y2="0.2"/><line class="cls-5" x1="160.79" y1="168.09" x2="0.18" y2="60.33"/><line class="cls-5" x1="160.79" y1="192.3" x2="0.18" y2="120.46"/><line class="cls-5" x1="160.79" y1="216.51" x2="0.18" y2="180.59"/><line class="cls-5" x1="160.79" y1="240.72" x2="0.18" y2="240.72"/><line class="cls-5" x1="160.79" y1="264.93" x2="0.18" y2="300.85"/><line class="cls-5" x1="160.79" y1="289.14" x2="0.18" y2="360.98"/><line class="cls-5" x1="160.79" y1="313.35" x2="0.18" y2="421.11"/><line class="cls-5" x1="160.79" y1="337.56" x2="0.18" y2="481.24"/><line class="cls-5" x1="537.89" y1="0.2" x2="0.18" y2="0.2"/><line class="cls-5" x1="495.82" y1="37.83" x2="42.24" y2="37.83"/><line class="cls-5" x1="465.14" y1="65.28" x2="72.92" y2="65.28"/><line class="cls-5" x1="441.77" y1="86.19" x2="96.29" y2="86.19"/><line class="cls-5" x1="423.38" y1="102.64" x2="114.69" y2="102.64"/><line class="cls-5" x1="408.52" y1="115.93" x2="129.54" y2="115.93"/><line class="cls-5" x1="396.28" y1="126.88" x2="141.79" y2="126.88"/><line class="cls-5" x1="386.01" y1="136.07" x2="152.05" y2="136.07"/><line class="cls-5" x1="350.21" y1="143.88" x2="470.67" y2="0.2"/><line class="cls-5" x1="323.15" y1="143.88" x2="403.46" y2="0.2"/><line class="cls-5" x1="296.09" y1="143.88" x2="336.25" y2="0.2"/><line class="cls-5" x1="269.03" y1="143.88" x2="269.03" y2="0.2"/><line class="cls-5" x1="241.97" y1="143.88" x2="201.82" y2="0.2"/><line class="cls-5" x1="214.91" y1="143.88" x2="134.6" y2="0.2"/><line class="cls-5" x1="187.85" y1="143.88" x2="67.39" y2="0.2"/><line class="cls-5" x1="537.89" y1="481.24" x2="537.89" y2="0.2"/><line class="cls-5" x1="495.82" y1="443.61" x2="495.82" y2="37.83"/><line class="cls-5" x1="465.14" y1="416.16" x2="465.14" y2="65.28"/><line class="cls-5" x1="441.77" y1="395.26" x2="441.77" y2="86.19"/><line class="cls-5" x1="423.38" y1="378.8" x2="423.38" y2="102.64"/><line class="cls-5" x1="408.52" y1="365.51" x2="408.52" y2="115.93"/><line class="cls-5" x1="396.28" y1="354.56" x2="396.28" y2="126.88"/><line class="cls-5" x1="386.01" y1="345.37" x2="386.01" y2="136.07"/><line class="cls-5" x1="377.27" y1="337.56" x2="537.89" y2="481.24"/><line class="cls-5" x1="377.27" y1="313.35" x2="537.89" y2="421.11"/><line class="cls-5" x1="377.27" y1="289.14" x2="537.89" y2="360.98"/><line class="cls-5" x1="377.27" y1="264.93" x2="537.89" y2="300.85"/><line class="cls-5" x1="377.27" y1="240.72" x2="537.89" y2="240.72"/><line class="cls-5" x1="377.27" y1="216.51" x2="537.89" y2="180.59"/><line class="cls-5" x1="377.27" y1="192.3" x2="537.89" y2="120.46"/><line class="cls-5" x1="377.27" y1="168.09" x2="537.89" y2="60.33"/><line class="cls-5" x1="377.27" y1="143.89" x2="537.89" y2="0.2"/><line class="cls-5" x1="0.18" y1="481.24" x2="537.89" y2="481.24"/><line class="cls-5" x1="42.24" y1="443.61" x2="495.82" y2="443.61"/><line class="cls-5" x1="72.92" y1="416.16" x2="465.14" y2="416.16"/><line class="cls-5" x1="96.29" y1="395.26" x2="441.77" y2="395.26"/><line class="cls-5" x1="114.69" y1="378.8" x2="423.38" y2="378.8"/><line class="cls-5" x1="129.54" y1="365.51" x2="408.52" y2="365.51"/><line class="cls-5" x1="141.79" y1="354.56" x2="396.28" y2="354.56"/><line class="cls-5" x1="152.05" y1="345.37" x2="386.01" y2="345.37"/><line class="cls-5" x1="187.85" y1="337.56" x2="67.39" y2="481.24"/><line class="cls-5" x1="214.91" y1="337.56" x2="134.6" y2="481.24"/><line class="cls-5" x1="241.97" y1="337.56" x2="201.82" y2="481.24"/><line class="cls-5" x1="269.03" y1="337.56" x2="269.03" y2="481.24"/><line class="cls-5" x1="296.09" y1="337.56" x2="336.24" y2="481.24"/><line class="cls-5" x1="323.15" y1="337.56" x2="403.46" y2="481.24"/><line class="cls-5" x1="350.21" y1="337.56" x2="470.67" y2="481.24"/></g></g><path class="cls-6" d="M375,319.31c0,7.19-14.57,13-32.56,13s-32.56-5.83-32.56-13v13c0,7.2,14.58,13,32.56,13s32.56-5.83,32.56-13v-13Z"/><path class="cls-6" d="M375,304.07c0,7.19-14.57,13-32.56,13s-32.56-5.83-32.56-13v13c0,7.19,14.58,13,32.56,13s32.56-5.83,32.56-13v-13Z"/><path class="cls-6" d="M375,334.63c0,7.2-14.57,13-32.56,13s-32.56-5.83-32.56-13v13c0,7.19,14.58,13,32.56,13s32.56-5.83,32.56-13v-13Z"/><path class="cls-6" d="M375,350c0,7.19-14.57,13-32.56,13s-32.56-5.83-32.56-13v13c0,7.19,14.58,13,32.56,13S375,370.17,375,363V350Z"/><path class="cls-6" d="M375,365.28c0,7.19-14.57,13-32.56,13s-32.56-5.83-32.56-13v13c0,7.2,14.58,13,32.56,13S375,385.5,375,378.3v-13Z"/><path class="cls-6" d="M375,380.6c0,7.2-14.57,13-32.56,13s-32.56-5.83-32.56-13v13c0,7.19,14.58,13,32.56,13s32.56-5.83,32.56-13v-13Z"/><path class="cls-6" d="M375,395.93c0,7.19-14.57,13-32.56,13s-32.56-5.83-32.56-13v13c0,7.19,14.58,13,32.56,13S375,416.14,375,409v-13Z"/><path class="cls-6" d="M375,411.25c0,7.19-14.57,13-32.56,13s-32.56-5.83-32.56-13v13c0,7.2,14.58,13,32.56,13s32.56-5.83,32.56-13v-13Z"/><path class="cls-6" d="M375,426.57c0,7.19-14.57,13-32.56,13s-32.56-5.84-32.56-13v13c0,7.19,14.58,13,32.56,13s32.56-5.83,32.56-13v-13Z"/><path class="cls-6" d="M308.47,349.92c0,7.19-14.58,13-32.56,13s-32.56-5.83-32.56-13v13c0,7.19,14.57,13,32.56,13s32.56-5.84,32.56-13v-13Z"/><path class="cls-6" d="M308.47,365.24c0,7.19-14.58,13-32.56,13s-32.56-5.83-32.56-13v13c0,7.2,14.57,13,32.56,13s32.56-5.83,32.56-13v-13Z"/><path class="cls-6" d="M308.47,380.56c0,7.2-14.58,13-32.56,13s-32.56-5.83-32.56-13v13c0,7.19,14.57,13,32.56,13s32.56-5.83,32.56-13v-13Z"/><path class="cls-6" d="M308.47,395.89c0,7.19-14.58,13-32.56,13s-32.56-5.83-32.56-13v13c0,7.19,14.57,13,32.56,13s32.56-5.83,32.56-13v-13Z"/><path class="cls-6" d="M308.47,411.21c0,7.19-14.58,13-32.56,13s-32.56-5.83-32.56-13v13c0,7.2,14.57,13,32.56,13s32.56-5.83,32.56-13v-13Z"/><path class="cls-6" d="M308.47,426.53c0,7.2-14.58,13-32.56,13s-32.56-5.83-32.56-13v13c0,7.19,14.57,13,32.56,13s32.56-5.83,32.56-13v-13Z"/><path class="cls-6" d="M441.56,380.49c0,7.19-14.58,13-32.56,13s-32.56-5.83-32.56-13v13c0,7.19,14.58,13,32.56,13s32.56-5.83,32.56-13v-13Z"/><path class="cls-6" d="M441.56,395.81c0,7.19-14.58,13-32.56,13s-32.56-5.83-32.56-13v13c0,7.2,14.58,13,32.56,13s32.56-5.83,32.56-13v-13Z"/><path class="cls-6" d="M441.56,411.13c0,7.19-14.58,13-32.56,13s-32.56-5.84-32.56-13v13c0,7.19,14.58,13,32.56,13s32.56-5.83,32.56-13v-13Z"/><path class="cls-6" d="M441.56,426.45c0,7.2-14.58,13-32.56,13s-32.56-5.83-32.56-13v13c0,7.19,14.58,13,32.56,13s32.56-5.83,32.56-13v-13Z"/><path class="cls-6" d="M241.82,380.49c0,7.19-14.58,13-32.56,13s-32.56-5.83-32.56-13v13c0,7.19,14.58,13,32.56,13s32.56-5.83,32.56-13v-13Z"/><path class="cls-6" d="M241.82,395.81c0,7.19-14.58,13-32.56,13s-32.56-5.83-32.56-13v13c0,7.2,14.58,13,32.56,13s32.56-5.83,32.56-13v-13Z"/><path class="cls-6" d="M241.82,411.13c0,7.19-14.58,13-32.56,13s-32.56-5.84-32.56-13v13c0,7.19,14.58,13,32.56,13s32.56-5.83,32.56-13v-13Z"/><path class="cls-6" d="M241.82,426.45c0,7.2-14.58,13-32.56,13s-32.56-5.83-32.56-13v13c0,7.19,14.58,13,32.56,13s32.56-5.83,32.56-13v-13Z"/><path class="cls-6" d="M408.16,376.68h3.26a5.16,5.16,0,0,0,1.62-.22c1.35-.41,1.83-1.39.95-2a4.7,4.7,0,0,0-2.11-.56c-1.28-.13-2.58-.08-3.88-.09-.23,0-.23.07-.23.15v1.26c0,.42,0,.84,0,1.25C407.76,376.66,407.87,376.69,408.16,376.68Z"/><path class="cls-6" d="M414.06,378.39a12.07,12.07,0,0,0-1.72-.18c-1.39,0-2.79,0-4.18,0-.29,0-.4,0-.39.18,0,.91,0,1.82,0,2.74a1.28,1.28,0,0,0,0,.17h3.36c.65,0,1.32,0,2-.11,1.38-.15,2.36-.51,2.69-1.21S415.59,378.66,414.06,378.39Z"/><path class="cls-6" d="M409,365.24c-18,0-32.56,5.83-32.56,13s14.58,13,32.56,13,32.56-5.83,32.56-13S427,365.24,409,365.24Zm12.74,14.6a2.43,2.43,0,0,1-.8,1.49,6.65,6.65,0,0,1-3.35,1.32,26.35,26.35,0,0,1-4.38.3c-.32,0-.4,0-.4.19,0,.66,0,1.33,0,2,0,.14-.06.2-.38.2-.77,0-1.56,0-2.33,0-.27,0-.34,0-.34-.16,0-.68,0-1.36,0-2,0-.13-.07-.18-.35-.17h-1.66v.2c0,.67,0,1.33,0,2,0,.14-.08.19-.37.18H405.1c-.28,0-.38,0-.38-.17,0-.68,0-1.35,0-2,0-.13-.07-.17-.36-.17h-5.11c-.29,0-.39,0-.37-.18,0-.41.06-.82.08-1.23,0-.1.1-.12.29-.12H401c1,0,1.42-.2,1.43-.68v-6.39c0-.4-.27-.56-1.09-.59s-1.54,0-2.31,0c-.3,0-.4,0-.39-.19a10.46,10.46,0,0,0,0-1.12c0-.15.07-.21.42-.21h5.64V372c0-.64,0-1.29,0-1.94,0-.14.09-.18.38-.18h2.34c.25,0,.34,0,.34.16,0,.67,0,1.33,0,2,0,.13.07.17.35.17h1.65V372c0-.64,0-1.29,0-1.93,0-.14.08-.18.37-.18h2.34c.26,0,.35,0,.34.16,0,.68,0,1.35,0,2,0,.13.08.17.34.19a23,23,0,0,1,4.15.53,5,5,0,0,1,2.63,1.25c.85,1,.06,2.24-1.89,2.88l-.31.11.51.09C420.71,377.61,422,378.57,421.74,379.84Z"/><path class="cls-6" d="M347.56,301.69a10.78,10.78,0,0,0-1.72-.19c-1.39,0-2.79,0-4.18,0-.29,0-.39,0-.39.19,0,.91,0,1.82,0,2.73,0,.05,0,.1,0,.18,1.15,0,2.26,0,3.36,0,.66,0,1.32,0,2-.11,1.37-.14,2.36-.51,2.69-1.21S349.1,302,347.56,301.69Z"/><path class="cls-6" d="M341.66,300h3.27a5.44,5.44,0,0,0,1.61-.23c1.35-.4,1.84-1.39,1-2a5.06,5.06,0,0,0-2.12-.56c-1.28-.13-2.58-.07-3.87-.08-.24,0-.23.06-.23.14v1.27c0,.41,0,.83,0,1.25C341.26,300,341.37,300,341.66,300Z"/><path class="cls-6" d="M342.45,288.82c-18,0-32.56,5.83-32.56,13s14.58,13,32.56,13S375,309,375,301.84,360.44,288.82,342.45,288.82Zm12.8,14.31a2.48,2.48,0,0,1-.81,1.49A6.61,6.61,0,0,1,351.1,306a25.39,25.39,0,0,1-4.38.29c-.32,0-.41,0-.41.19,0,.67,0,1.33,0,2,0,.14-.07.19-.38.19h-2.34c-.27,0-.34,0-.34-.17,0-.68,0-1.36,0-2,0-.13-.07-.17-.35-.17h-1.65v.21c0,.66,0,1.32,0,2,0,.14-.08.18-.37.18H338.6c-.28,0-.38,0-.37-.18,0-.67,0-1.35,0-2,0-.14-.08-.18-.37-.18h-5.11c-.28,0-.38,0-.37-.18,0-.41.07-.82.08-1.23,0-.11.11-.13.29-.13.59,0,1.18,0,1.78,0,1,0,1.42-.19,1.42-.68,0-1.29,0-2.57,0-3.86,0-.84,0-1.69,0-2.53,0-.4-.27-.56-1.09-.58s-1.54,0-2.3,0c-.31,0-.4,0-.4-.18a10.65,10.65,0,0,0,0-1.13c0-.15.07-.21.42-.2,1.75,0,3.49,0,5.24,0h.4v-.19c0-.65,0-1.3,0-1.95,0-.14.1-.18.38-.18h2.34c.25,0,.34,0,.34.17,0,.66,0,1.33,0,2,0,.13.08.18.35.17h1.66v-.21c0-.65,0-1.29,0-1.93,0-.14.09-.19.38-.19H346c.26,0,.35,0,.35.16,0,.67,0,1.35,0,2,0,.13.07.18.34.19a22.74,22.74,0,0,1,4.14.53,5.05,5.05,0,0,1,2.63,1.25c.85,1,.06,2.24-1.89,2.89l-.31.1.51.09C354.21,300.91,355.45,301.86,355.25,303.13Z"/><path class="cls-6" d="M275.69,345.87H279a5.56,5.56,0,0,0,1.62-.23c1.35-.4,1.83-1.39.95-2a5.06,5.06,0,0,0-2.12-.56c-1.28-.13-2.58-.07-3.87-.08-.23,0-.23.06-.23.14v1.27c0,.41,0,.83,0,1.25C275.28,345.84,275.4,345.87,275.69,345.87Z"/><path class="cls-6" d="M281.58,347.58a10.78,10.78,0,0,0-1.72-.19c-1.39,0-2.78,0-4.18,0-.29,0-.39,0-.39.19,0,.91,0,1.82,0,2.73a1.62,1.62,0,0,0,0,.18c1.14,0,2.25,0,3.35,0,.66,0,1.32,0,2-.1,1.37-.15,2.36-.52,2.69-1.21S283.12,347.84,281.58,347.58Z"/><path class="cls-6" d="M275.91,334.67c-18,0-32.56,5.83-32.56,13s14.57,13,32.56,13,32.56-5.83,32.56-13S293.89,334.67,275.91,334.67ZM289.27,349a2.42,2.42,0,0,1-.81,1.49,6.61,6.61,0,0,1-3.34,1.33,25.32,25.32,0,0,1-4.38.29c-.32,0-.41,0-.4.19,0,.67,0,1.33,0,2,0,.14-.06.19-.38.19h-2.34c-.26,0-.34,0-.34-.17,0-.68,0-1.36,0-2,0-.13-.07-.17-.35-.17H275.3v.21c0,.66,0,1.32,0,2,0,.14-.08.18-.37.18h-2.3c-.29,0-.39,0-.38-.18,0-.67,0-1.35,0-2,0-.14-.08-.18-.37-.18h-5.1c-.29,0-.39,0-.38-.18q.06-.61.09-1.23c0-.11.1-.13.28-.13h1.78c1,0,1.42-.19,1.42-.68,0-1.28,0-2.57,0-3.86v-2.53c0-.4-.28-.56-1.1-.58s-1.54,0-2.3,0c-.31,0-.4,0-.39-.18,0-.38,0-.75,0-1.13,0-.15.06-.2.41-.2h5.64v-.19c0-.65,0-1.3,0-2,0-.14.09-.18.37-.18H275c.25,0,.34,0,.34.16,0,.66,0,1.33,0,2,0,.13.08.18.35.17h1.66v-.21c0-.65,0-1.29,0-1.93,0-.14.09-.19.38-.18H280c.25,0,.34,0,.34.16,0,.67,0,1.35,0,2,0,.13.07.18.34.19a22.74,22.74,0,0,1,4.14.53,4.94,4.94,0,0,1,2.63,1.26c.86,1,.06,2.23-1.89,2.88l-.3.1.5.09C288.24,346.8,289.48,347.75,289.27,349Z"/><path class="cls-6" d="M208.64,376h3.26a5.16,5.16,0,0,0,1.62-.22c1.35-.41,1.83-1.4,1-2a4.92,4.92,0,0,0-2.12-.55c-1.28-.13-2.58-.08-3.87-.09-.24,0-.24.07-.24.14v1.27c0,.42,0,.83,0,1.25C208.24,376,208.35,376,208.64,376Z"/><path class="cls-6" d="M214.54,377.73a12.07,12.07,0,0,0-1.72-.19c-1.39,0-2.79,0-4.18,0-.29,0-.4,0-.39.18,0,.91,0,1.82,0,2.73a1.24,1.24,0,0,0,0,.18c1.15,0,2.25,0,3.36,0,.65,0,1.32,0,2-.1,1.38-.15,2.36-.52,2.7-1.21S216.08,378,214.54,377.73Z"/><path class="cls-6" d="M209.26,365.24c-18,0-32.56,5.83-32.56,13s14.58,13,32.56,13,32.56-5.83,32.56-13S227.24,365.24,209.26,365.24Zm13,13.94a2.5,2.5,0,0,1-.81,1.49,6.65,6.65,0,0,1-3.35,1.32,25.26,25.26,0,0,1-4.38.29c-.32,0-.4.05-.4.2,0,.66,0,1.33,0,2,0,.14-.07.2-.39.19-.77,0-1.55,0-2.33,0-.27,0-.34,0-.34-.16,0-.68,0-1.36,0-2,0-.13-.07-.18-.35-.18h-1.66v.2c0,.66,0,1.33,0,2,0,.14-.08.19-.37.18q-1.15,0-2.31,0c-.28,0-.38,0-.38-.17,0-.68,0-1.35,0-2,0-.14-.08-.18-.37-.18h-5.11c-.28,0-.39,0-.37-.18,0-.41.06-.82.08-1.23,0-.1.11-.12.29-.12h1.77c1,0,1.42-.2,1.43-.68v-6.4c0-.39-.27-.55-1.09-.58s-1.54,0-2.31,0c-.3,0-.4,0-.39-.19a10.46,10.46,0,0,0,0-1.12c0-.16.07-.21.42-.21h5.64v-.2c0-.65,0-1.3,0-1.94,0-.15.1-.18.38-.18h2.34c.25,0,.34,0,.34.16,0,.67,0,1.33,0,2,0,.13.07.17.35.17h1.66v-.21c0-.64,0-1.29,0-1.93,0-.14.08-.18.37-.18H213c.26,0,.35,0,.34.16,0,.68,0,1.35,0,2,0,.12.08.17.34.18a23.88,23.88,0,0,1,4.15.54,5,5,0,0,1,2.63,1.25c.85,1,.06,2.23-1.89,2.88l-.31.1.51.1C221.19,377,222.43,377.9,222.23,379.18Z"/></svg>