<svg id="图层_1" data-name="图层 1" xmlns="http://www.w3.org/2000/svg" viewBox="0 0 105.12 89.47"><defs><style>.cls-1{fill:#214182;}</style></defs><path class="cls-1" d="M26.82,32.29C12,32.29,0,29.1,0,25.16V36.07H.09c1.11,3.66,12.65,6.55,26.73,6.55s25.61-2.89,26.72-6.55h.09V25.16h0C53.63,29.1,41.63,32.29,26.82,32.29Z"/><ellipse class="cls-1" cx="26.82" cy="23.11" rx="26.82" ry="7.13"/><path class="cls-1" d="M74.19,79.14C57.11,79.14,43.26,76,43.26,72V82.92h.11c1.27,3.67,14.58,6.55,30.82,6.55s29.55-2.88,30.82-6.55h.11V72h0C105.12,76,91.27,79.14,74.19,79.14Z"/><ellipse class="cls-1" cx="74.19" cy="69.97" rx="30.93" ry="7.13"/><path class="cls-1" d="M69.82,70.33C62,12.75,48,3.42,42.68,3.11c-7.09-.44-15.49,14.33-17.33,20L24,22.53C24.8,20.15,31.88-.66,43.18,0,54.65.71,71.56,23.47,80.53,69.61Z"/></svg>