<svg id="图层_1" data-name="图层 1" xmlns="http://www.w3.org/2000/svg" viewBox="0 0 137.33 126.29"><defs><style>.cls-1{fill:#214182;}</style></defs><path class="cls-1" d="M45.19,95.13S63.88,102,71.5,102s24-5.4,24-5.4S98,89.45,91.14,87.5c-7.79-2.21-13.45,2.29-22.36-1.33s-22.64-14.3-22.64-14.3A22.24,22.24,0,0,0,24.6,70.15C12.39,75.49,0,81.21,0,81.21l15.06,31.27,9.54-4.58s4.95-3.62,11.44,1.15,26.88,14.87,26.88,14.87,8.58,5.34,17.73,0,55.68-37.75,55.68-37.75,6.48-13-13.54-10.49c0,0-4.57-8-19.06-1,0,0-7.82-8.39-27.27,5.53l-5.34,3.35a21.41,21.41,0,0,0,8.25.79c5.26-.45,13.13-1.05,17.09,2.44s3.26,9,2.33,11.62c0,0-18.3,7.12-28.15,6.82C61.55,105,43.81,99,43.81,99Z"/><path class="cls-1" d="M77.23,23.52c-.19-.1-.28.08-.39.28-.55,1.07-1.11,2.14-1.66,3.22s-1.09,2.13-1.66,3.18c-.2.38-.15.51.09.63q1.35.66,2.67,1.38a2.16,2.16,0,0,0,1.63.12,5.57,5.57,0,0,0,3.38-4.62,3,3,0,0,0-1-2.32A13.36,13.36,0,0,0,77.23,23.52Z"/><path class="cls-1" d="M90.73,1.9c-11.94-6.18-29.07,3.22-38.27,21s-7,37.19,4.95,43.36,29.06-3.22,38.26-21S102.66,8.08,90.73,1.9Zm-4,27.27c-.67,3-2.9,5.72-5.35,6.53l-.39.14.3.45c1.41,2.23,1.17,5.19-.67,8.34A15.07,15.07,0,0,1,78,48.07a6.48,6.48,0,0,1-4.49,2,8.07,8.07,0,0,1-4-1.12c-.26-.14-.39-.06-.58.32-.86,1.7-1.75,3.39-2.62,5.08-.18.36-.31.48-.56.33-.63-.36-1.27-.68-1.92-1-.22-.11-.22-.26-.06-.57.9-1.73,1.79-3.46,2.7-5.19.17-.32.17-.48-.06-.58-.45-.21-.89-.45-1.37-.7l-.26.51c-.88,1.69-1.76,3.38-2.62,5.08-.18.35-.31.43-.55.3-.62-.35-1.25-.67-1.89-1-.24-.11-.27-.25-.08-.61.9-1.71,1.78-3.44,2.68-5.15.19-.35.17-.49-.07-.61-1.4-.7-2.79-1.44-4.19-2.15-.24-.12-.27-.26-.08-.61.58-1,1.14-2.07,1.7-3.1.14-.27.24-.27.39-.19l1.46.75c.82.43,1.42.11,2.07-1.13l5.09-9.82L72,22.45c.52-1,.51-1.53-.13-1.95a16,16,0,0,0-1.87-1c-.25-.12-.27-.28-.08-.64.51-1,1-1.9,1.48-2.86.2-.4.33-.5.62-.35,1.42.77,2.86,1.5,4.29,2.24l.34.15.26-.5,2.56-5c.18-.37.31-.43.54-.3.63.35,1.27.68,1.92,1,.21.1.23.24.06.56l-2.63,5.07c-.17.33-.17.48.06.59.45.2.88.44,1.36.69l.29-.55c.84-1.63,1.7-3.27,2.53-4.91.19-.36.32-.43.55-.3q.95.52,1.92,1c.21.11.23.24.06.56-.89,1.71-1.77,3.44-2.67,5.15-.17.32-.17.47,0,.62a8.41,8.41,0,0,1,2.7,3.12A6.31,6.31,0,0,1,86.71,29.17Z"/><path class="cls-1" d="M75,36.47c-1.1-.67-2.26-1.22-3.39-1.84-.24-.13-.37-.09-.57.3-1.18,2.32-2.39,4.64-3.59,7-.07.13-.13.27-.22.46.94.48,1.83,1,2.76,1.41a6.88,6.88,0,0,0,1.75.56c1.32.21,2.61-.31,3.8-1.94,1.3-1.78,1.54-3.38.63-4.7A4.1,4.1,0,0,0,75,36.47Z"/></svg>