<svg id="图层_1" data-name="图层 1" xmlns="http://www.w3.org/2000/svg" viewBox="0 0 131.61 137.46"><defs><style>.cls-1{fill:#214182;}</style></defs><path class="cls-1" d="M69.38,29.61l-38.7,21.5L18.13,98.92,0,115.78l25.25,21.68L42,116.23c8.14-7,17.12-11.87,20.9-27.26l2.27-10.36L80.42,57.29s4.68-5.77-.87-9.07C74.45,45.19,50,64.74,50,64.74l-1.53-2.26S62.49,52,69.32,48.59Z"/><path class="cls-1" d="M71.5,12.86V47.94A16.41,16.41,0,0,1,78,46V28.18h4.76l4.84,9.31,1.91,4.32h.13a61.83,61.83,0,0,1-.63-7.2V28.18h4.45V47.64H88.72l-4.81-9.39L82,34h-.13c.21,2.17.6,4.84.6,7.2v6.28c5.11,4.31.14,11,.14,11L71.5,74.23v0h47.25a12.86,12.86,0,0,0,12.86-12.86V12.86A12.86,12.86,0,0,0,118.75,0H84.35A12.86,12.86,0,0,0,71.5,12.86Zm38.42,19.19h-7.75v4.26h6.65v3.9h-6.65v7.43H97.49V28.18h12.43Zm16.59,0h-5.29V47.64h-4.68V32.05h-5.26V28.18h15.23Z"/></svg>