<?xml version="1.0" encoding="UTF-8"?>
<svg width="18px" height="16px" viewBox="0 0 18 16" version="1.1" xmlns="http://www.w3.org/2000/svg" xmlns:xlink="http://www.w3.org/1999/xlink">
    <title>心</title>
    <g id="Page-1" stroke="none" stroke-width="1" fill="none" fill-rule="evenodd">
        <g id="Banksy-Personal-Page" transform="translate(-220.000000, -837.000000)" fill="#7C6DEB" fill-rule="nonzero">
            <g id="Group-9" transform="translate(205.000000, 552.000000)">
                <g id="Group-14" transform="translate(15.000000, 282.000000)">
                    <g id="心" transform="translate(0.000000, 3.000000)">
                        <path d="M13.0499945,0 C11.4750128,0 9.99054596,0.697485948 8.99998995,1.83113642 C8.00945404,0.697466091 6.52500729,0 4.94998542,0 C2.15946761,0 0,2.09243799 0,4.79556588 C0,8.10894681 3.05948872,10.7682299 7.69482362,14.8663098 L8.99998995,16 L10.3051764,14.8663098 C14.9405314,10.7682299 18,8.10894681 18,4.79556588 C18,2.09243799 15.8405324,0 13.0499945,0 Z M9.55548382,13.7191763 L9.37266483,13.8806356 L9.00001005,14.2044279 L8.62737538,13.8806356 L8.44542092,13.7191961 C6.26311351,11.7907989 4.37961351,10.1254308 3.13335619,8.63627597 C1.9239522,7.18965536 1.38430143,6.00519019 1.38430143,4.79554602 C1.38430143,3.84283482 1.74905476,2.96526346 2.41086633,2.32421182 C3.07006419,1.68532462 3.97181437,1.33329527 4.95002563,1.33329527 C6.08115906,1.33329527 7.19916361,1.8402509 7.94097482,2.68922781 L9.00005026,3.90276401 L10.0591659,2.68922781 C10.800957,1.8402509 11.9189214,1.33329527 13.0500548,1.33329527 C14.0282862,1.33329527 14.9300564,1.68532462 15.5892141,2.32421182 C16.2510458,2.96526346 16.6157991,3.84283482 16.6157991,4.79554602 C16.6157991,6.00515047 16.0761282,7.18963551 14.8667644,8.63627597 C13.6204267,10.1254308 11.7369066,11.7907989 9.55550393,13.7191763 L9.55548382,13.7191763 Z" id="Shape"></path>
                    </g>
                </g>
            </g>
        </g>
    </g>
</svg>