<?xml version="1.0" encoding="UTF-8"?>
<svg width="23px" height="21px" viewBox="0 0 23 21" version="1.1" xmlns="http://www.w3.org/2000/svg" xmlns:xlink="http://www.w3.org/1999/xlink">
    <title>Shape</title>
    <g id="Page-1" stroke="none" stroke-width="1" fill="none" fill-rule="evenodd">
        <g id="Banksy-Personal-Page" transform="translate(-729.000000, -406.000000)" fill="#999999" fill-rule="nonzero">
            <path d="M745.674993,406 C743.662516,406 741.765698,406.891232 740.499987,408.339785 C739.234302,406.891207 737.337509,406 735.324981,406 C731.75932,406 729,408.673671 729,412.127668 C729,416.361432 732.909347,419.759405 738.832275,424.99584 L740.499987,426.444444 L742.167725,424.99584 C748.090679,419.759405 752,416.361432 752,412.127668 C752,408.673671 749.24068,406 745.674993,406 Z M741.209785,423.530059 L740.976183,423.736368 L740.500013,424.150102 L740.023869,423.736368 L739.791371,423.530084 C737.002867,421.066021 734.596173,418.93805 733.003733,417.035242 C731.458383,415.186782 730.76883,413.673299 730.76883,412.127642 C730.76883,410.910289 731.234903,409.788948 732.080551,408.969826 C732.92286,408.15347 734.075096,407.703655 735.325033,407.703655 C736.77037,407.703655 738.198931,408.351432 739.146801,409.436236 L740.500064,410.986865 L741.853379,409.436236 C742.801223,408.351432 744.229733,407.703655 745.67507,407.703655 C746.925032,407.703655 748.077294,408.15347 748.919551,408.969826 C749.765225,409.788948 750.231299,410.910289 750.231299,412.127642 C750.231299,413.673248 749.541719,415.186756 747.996421,417.035242 C746.403879,418.93805 743.997158,421.066021 741.209811,423.530059 L741.209785,423.530059 Z" id="Shape"></path>
        </g>
    </g>
</svg>
