<?xml version="1.0" encoding="UTF-8"?>
<svg width="23px" height="22px" viewBox="0 0 23 22" version="1.1" xmlns="http://www.w3.org/2000/svg" xmlns:xlink="http://www.w3.org/1999/xlink">
    <title>活动</title>
    <g id="Page-1" stroke="none" stroke-width="1" fill="none" fill-rule="evenodd">
        <g id="Banksy-Personal-Page" transform="translate(-572.000000, -405.000000)" fill="#999999" fill-rule="nonzero">
            <g id="Group-4" transform="translate(572.000000, 405.000000)">
                <g id="活动" transform="translate(0.000000, 0.000000)">
                    <path d="M21.1867695,4.75058472 L18.1094255,4.75058472 C18.5008314,4.05407227 18.6853744,3.260339 18.6413827,2.46259664 C18.6341054,1.70421985 18.3081859,0.983875503 17.7433474,0.477767012 C16.5192738,-0.47746801 14.2713256,0.0487692417 12.5953743,1.68468071 C12.1273998,2.14668349 11.7406503,2.68426524 11.4513803,3.2748324 C11.1622043,2.68420892 10.7754441,2.14661221 10.3073862,1.68468071 C8.66003484,0.0487692417 6.41208658,-0.483187991 5.1594131,0.477767012 C4.62349379,0.995529789 4.32540456,1.71177196 4.3357374,2.45687668 C4.29174577,3.25461903 4.47628875,4.0483523 4.86769461,4.74486474 L1.78463071,4.74486474 C1.31131722,4.74486473 0.857389413,4.93288778 0.522706233,5.26757095 C0.188023053,5.60225413 -1.82892746e-15,6.05618193 -1.82892746e-15,6.52949542 L-1.82892746e-15,8.30268619 C-1.82892746e-15,8.77599967 0.188023053,9.22992747 0.522706233,9.56461065 C0.857389413,9.89929383 1.31131722,10.0873169 1.78463071,10.0873169 L2.04774932,10.0873169 L2.04774932,18.5242728 C2.05089676,20.1625155 3.37817118,21.4897899 5.01641385,21.4930255 L17.9263865,21.4930255 C18.7182087,21.4990299 19.4797755,21.1891354 20.0423726,20.6319066 C20.6049697,20.0746777 20.9221515,19.316117 20.9236509,18.5242728 L20.9236509,10.0873169 L21.2153693,10.0873169 C21.6886828,10.0873169 22.1426106,9.89929382 22.4772938,9.56461064 C22.811977,9.22992747 23,8.77599967 23,8.30268619 L23,6.52949542 C22.9985315,6.0521773 22.8059142,5.5953397 22.4651886,5.26106316 C22.124463,4.92678662 21.6640285,4.74293309 21.1867695,4.75058472 L21.1867695,4.75058472 Z M13.4876896,2.52551633 C14.9005223,1.12412365 16.484954,0.975404407 17.0397911,1.38152228 C17.3362352,1.68738121 17.4970459,2.09971631 17.4859488,2.52551633 C17.5247694,3.33927518 17.2434876,4.13589809 16.7023129,4.74486474 L12.1949764,4.74486474 C12.4199419,3.90290813 12.8663122,3.13657321 13.4876896,2.52551633 L13.4876896,2.52551633 Z M5.5426511,2.52551633 C5.53155397,2.09971632 5.69236466,1.68738122 5.98880876,1.38152228 C6.56080579,0.946804551 8.12807761,1.09552376 9.54091023,2.52551633 C10.1531926,3.14118501 10.5896474,3.90942441 10.8050236,4.75058472 L6.29768715,4.75058472 C5.75651238,4.14161806 5.47523058,3.34499514 5.51405124,2.53123629 L5.5426511,2.52551633 Z M1.1897538,8.30268619 L1.1897538,6.52949542 C1.18975382,6.21359019 1.44584561,5.95749842 1.76175083,5.95749842 L10.8908232,5.95749842 L10.8908232,8.92044296 L1.78463071,8.92044296 C1.62072149,8.92754373 1.46165411,8.86392077 1.34785321,8.74574291 C1.23405231,8.62756505 1.17647504,8.46621088 1.1897538,8.30268619 Z M3.26610298,18.5242728 L3.26610298,10.0873169 L10.8908232,10.0873169 L10.8908232,19.8627459 C10.8905469,20.0328762 10.9660179,20.1943002 11.0967421,20.3031836 L5.04501368,20.3031836 C4.06385189,20.3000438 3.26924271,19.5054346 3.26610298,18.5242728 L3.26610298,18.5242728 Z M19.7110172,18.5242728 C19.7110172,18.9975863 19.5229941,19.4515141 19.188311,19.7861973 C18.8536278,20.1208805 18.3997,20.3089035 17.9263865,20.3089035 L11.8689381,20.3089035 C11.9996623,20.2000202 12.0751333,20.0385962 12.074857,19.8684658 L12.074857,10.0873169 L19.7052972,10.0873169 L19.7052972,18.5242728 L19.7110172,18.5242728 Z M21.7816464,8.30268619 C21.7816464,8.61859141 21.5255546,8.87468319 21.2096493,8.87468319 L12.080577,8.87468319 L12.080577,5.9403385 L21.1867695,5.9403385 C21.5026747,5.9403385 21.7587665,6.19643029 21.7587665,6.51233552 L21.7587665,8.28552627 L21.7816464,8.30268619 Z" id="Shape"></path>
                </g>
            </g>
        </g>
    </g>
</svg>
