<?xml version="1.0" encoding="UTF-8"?>
<svg width="16px" height="16px" viewBox="0 0 16 16" version="1.1" xmlns="http://www.w3.org/2000/svg" fill="white"
     xmlns:xlink="http://www.w3.org/1999/xlink">
  <g id="Banksy-AI-Generators-" transform="translate(-40.000000, -216.000000)" fill-rule="nonzero">
    <g id="Group-16" transform="translate(0.000000, 197.000000)">
      <g transform="translate(40.000000, 19.000000)">
        <path
          d="M13.3368253,1.29927815e-13 L12.3497745,1.29927815e-13 C12.1053397,1.29927815e-13 11.905136,0.194790487 11.905136,0.432616082 C11.905136,0.670441676 12.1053397,0.865232163 12.3497745,0.865232163 L13.3368253,0.865232163 C14.3145642,0.865232163 15.1107231,1.6398641 15.1107231,2.59343148 L15.1107231,13.4065685 C15.1107231,14.3601359 14.3122363,15.1347678 13.3321694,15.1347678 L2.66550269,15.1347678 C1.68543576,15.1347678 0.889276881,14.3601359 0.889276881,13.4065685 L0.889276881,2.59343148 C0.889276881,1.6398641 1.68543576,0.865232163 2.66550269,0.865232163 L3.71075222,0.865232163 C3.95518696,0.865232163 4.15539066,0.670441676 4.15539066,0.432616082 C4.15539066,0.194790487 3.95518696,1.29927815e-13 3.71075222,1.29927815e-13 L2.66550269,1.29927815e-13 C1.19656627,1.29927815e-13 0,1.16421291 0,2.59343148 L0,13.4065685 C0,14.8357871 1.19656627,16 2.66550269,16 L13.3344973,16 C14.8034337,16 16,14.8357871 16,13.4065685 L16,2.59343148 C15.9976721,1.16421291 14.8034337,1.29927815e-13 13.3368253,1.29927815e-13 Z"
          id="Path"></path>
        <path
          d="M12.0374167,8.12801862 L3.96258325,8.12801862 C3.66803861,8.12801862 3.42857143,8.32819319 3.42857143,8.57259238 C3.42857143,8.81699156 3.66803861,9.01716613 3.96258325,9.01716613 L12.0374167,9.01716613 C12.3319614,9.01716613 12.5714286,8.81699156 12.5714286,8.57259238 C12.5714286,8.32586558 12.3319614,8.12801862 12.0374167,8.12801862 L12.0374167,8.12801862 Z M6.25907356,1.33139366 L9.72176906,1.33139366 C10.1767567,1.33139366 10.5455362,1.03345941 10.5455362,0.665696829 C10.5455362,0.297934245 10.1767567,1.29927815e-13 9.72176906,1.29927815e-13 L6.25907356,1.29927815e-13 C5.80408591,1.29927815e-13 5.43529485,0.297934245 5.43529485,0.665696829 C5.43291177,1.0311318 5.80169124,1.33139366 6.25907356,1.33139366 Z M12.0374167,11.6822811 L3.96258325,11.6822811 C3.66803861,11.6822811 3.42857143,11.880128 3.42857143,12.1268548 C3.42857143,12.371254 3.66803861,12.5714286 3.96258325,12.5714286 L12.0374167,12.5714286 C12.3319614,12.5714286 12.5714286,12.371254 12.5714286,12.1268548 C12.5714286,11.880128 12.3319614,11.6822811 12.0374167,11.6822811 L12.0374167,11.6822811 Z M12.0374167,4.57142857 L3.96258325,4.57142857 C3.66803861,4.57142857 3.42857143,4.77160314 3.42857143,5.01600233 C3.42857143,5.26040151 3.66803861,5.46057608 3.96258325,5.46057608 L12.0374167,5.46057608 C12.3319614,5.46057608 12.5714286,5.26040151 12.5714286,5.01600233 C12.5714286,4.77160314 12.3319614,4.57142857 12.0374167,4.57142857 L12.0374167,4.57142857 Z"
          id="Shape"></path>
      </g>
    </g>
  </g>
</svg>
