<?xml version="1.0" encoding="UTF-8"?>
<svg width="17px" height="16px" viewBox="0 0 17 16" version="1.1" xmlns="http://www.w3.org/2000/svg"
     fill="white" xmlns:xlink="http://www.w3.org/1999/xlink">
  <g id="Banksy-Home" transform="translate(-40.000000, -215.000000)" fill-rule="nonzero">
    <g id="Group-5" transform="translate(0.000000, 197.000000)">
      <g id="收藏-(1)" transform="translate(40.000000, 18.000000)">
        <path
          d="M15.3237785,5 C14.9503398,5 14.647557,4.72017276 14.647557,4.37502249 L14.647557,4.12506748 C14.647557,3.77991722 14.9503398,3.50008998 15.3237785,3.50008998 C15.6972172,3.50008998 16,3.77991722 16,4.12506748 L16,4.37502249 C16,4.72017276 15.6974129,5 15.3237785,5 Z M10.2745276,4.24995501 L5.67622149,4.24995501 C5.30278282,4.24995501 5,3.97012777 5,3.62497751 C5,3.27982724 5.30278282,3 5.67622149,3 L10.2745276,3 C10.6479663,3 10.9507491,3.27982724 10.9507491,3.62497751 C10.9507491,3.97012777 10.648162,4.24995501 10.2745276,4.24995501 Z"
          id="Shape"></path>
        <path
          d="M0.686799402,5 C0.55650257,5 0.424813251,4.96547267 0.307844491,4.89327917 C-0.0086475104,4.69774742 -0.0951805216,4.29985229 0.114289043,4.00461595 L2.66174132,0.330132939 C2.78646821,0.154357459 2.99613671,0.0468980798 3.22211717,0.0430206795 C3.44769978,0.0384047267 3.66174465,0.139217134 3.79343397,0.3105613 L6.10754551,3.4084195 C6.32875173,3.69627031 6.25793391,4.09693501 5.94939897,4.30317578 C5.64106295,4.50941654 5.21158072,4.44350074 4.99037449,4.15546529 L3.25732715,1.81406942 L1.26030439,4.7127031 C1.12821722,4.89900295 0.90959704,5 0.686799402,5 Z M15.3132654,4.88774003 C15.0956399,4.88774003 14.881595,4.79154357 14.7481153,4.61207533 L12.6283549,1.76292467 L10.8382157,4.14955687 C10.6205902,4.43962334 10.1921026,4.51052437 9.8811805,4.30723781 C9.57005951,4.10413589 9.49446746,3.70420975 9.71209301,3.41414328 L12.0675812,0.273633678 C12.1956945,0.102324592 12.4060699,0.000105471611 12.6307421,0 L12.6321345,0 C12.8569215,0.000369276219 13.0671867,0.103397341 13.1954943,0.275664697 L15.8772219,3.88072378 C16.0936539,4.17171344 16.0164705,4.57127031 15.7045538,4.7732644 C15.5898681,4.84778257 15.4532599,4.88774003 15.3132654,4.88774003 L15.3132654,4.88774003 Z"
          id="Shape"></path>
        <path
          d="M1.40325205,16 C0.629494452,16 0,15.3487211 0,14.5481069 L0,4.66663468 C0,4.29847881 0.297170558,4 0.663687315,4 C1.03020407,4 1.32737463,4.29847881 1.32737463,4.66663468 L1.32737463,8.29156869 L1.51409071,7.01761121 C1.54655472,6.32871059 2.15126896,5.77762849 2.88987322,5.77762849 L15.6228728,5.77762849 C16.3822233,5.77762849 17,6.35999808 17,7.07577139 C17,7.10859446 16.9975028,7.14160948 16.9927004,7.17404866 L15.8107415,15.1343155 C15.8088205,15.1473679 15.8065154,15.1602284 15.8038261,15.1730889 C15.7632941,15.3665723 15.5571764,15.9976966 14.6057312,16 L1.40325205,16 L1.40325205,16 Z M1.73480757,14.6667306 L14.5379218,14.6667306 L15.6589866,7.11608043 C15.6491898,7.11320121 15.6370878,7.11128173 15.6226807,7.11128173 L2.88987322,7.11128173 C2.86701394,7.11128173 2.84991751,7.11646432 2.83858392,7.12164691 C2.83743135,7.13892221 2.83551041,7.15600557 2.83301318,7.17308892 L1.73480757,14.6667306 Z"
          id="Shape"></path>
        <path
          d="M5.68936178,11.9232426 C5.63873705,11.9232426 5.58751438,11.9182791 5.53609241,11.9078203 C5.16517656,11.832481 4.93298045,11.5025839 5.01728857,11.1709141 L5.44739948,9.47923853 C5.53170759,9.14774599 5.90082965,8.94034156 6.27154619,9.01532624 C6.64246204,9.09066545 6.87465816,9.42056258 6.79035004,9.75223239 L6.36023913,11.443908 C6.2876903,11.7294879 6.00387291,11.9232426 5.68936178,11.9232426 L5.68936178,11.9232426 Z M11.8817232,12 C11.8310984,12 11.7798758,11.9950365 11.7284538,11.9845776 C11.357538,11.9092384 11.1253418,11.5793413 11.20965,11.2476715 L11.6397609,9.55599589 C11.724069,9.22450335 12.093191,9.01692166 12.4639076,9.0920836 C12.8348234,9.16742282 13.0670196,9.49731994 12.9827114,9.82898975 L12.5526005,11.5206653 C12.4798524,11.8062453 12.196035,12 11.8817232,12 L11.8817232,12 Z"
          id="Shape"></path>
      </g>
    </g>
  </g>
</svg>
