<?xml version="1.0" encoding="UTF-8"?>
<svg width="19px" height="18px" viewBox="0 0 19 18" fill="white" version="1.1" xmlns="http://www.w3.org/2000/svg"
     xmlns:xlink="http://www.w3.org/1999/xlink">
  <g id="Banksy-Home" transform="translate(-40.000000, -130.000000)" fill-rule="nonzero">
    <g id="Group-10" transform="translate(0.000000, 114.000000)">
      <g id="主页" transform="translate(40.000000, 16.000000)">
        <path
          d="M18.7285714,7.00509024 L10.8571429,0.474780194 C10.1107143,-0.158260065 8.99107143,-0.158260065 8.24464286,0.474780194 L0.271428571,7.00509024 C0.101785714,7.13836187 0,7.30495141 0,7.53817677 C0,7.90467376 0.305357143,8.20453494 0.678571429,8.20453494 C0.848214286,8.20453494 1.01785714,8.13789912 1.11964286,8.0379454 L1.35714286,7.83803795 L1.35714286,15.2679315 C1.35714286,16.7672374 2.51071429,18 3.96964286,18 L15.0303571,18 C16.4553571,18 17.6428571,16.7672374 17.6428571,15.2679315 L17.6428571,7.83803795 L17.8464286,8.00462749 C17.9821429,8.10458121 18.1178571,8.17121703 18.3214286,8.17121703 C18.6946429,8.17121703 19,7.87135585 19,7.50485886 C19,7.33826932 18.8982143,7.13836187 18.7285714,7.00509024 Z M8.14285714,16.6672837 L8.14285714,12.0027765 C8.14285714,11.6362795 8.44821429,11.3364183 8.82142857,11.3364183 L10.1785714,11.3364183 C10.5517857,11.3364183 10.8571429,11.6362795 10.8571429,12.0027765 L10.8571429,16.6672837 L8.14285714,16.6672837 Z M16.2857143,15.2679315 C16.2857143,16.0342434 15.7089286,16.6672837 14.9964286,16.6672837 L12.2142857,16.6672837 L12.2142857,12.0027765 C12.2142857,10.9032855 11.2982143,10.003702 10.1785714,10.003702 L8.82142857,10.003702 C7.70178571,10.003702 6.78571429,10.9032855 6.78571429,12.0027765 L6.78571429,16.6672837 L4.00357143,16.6672837 C3.29107143,16.6672837 2.71428571,16.0342434 2.71428571,15.2679315 L2.71428571,6.73854697 L9.09285714,1.50763535 C9.33035714,1.3077279 9.70357143,1.3077279 9.975,1.50763535 L16.2857143,6.70522906 L16.2857143,15.2679315 Z"
          id="Shape"></path>
      </g>
    </g>
  </g>
</svg>
