<?xml version="1.0" encoding="UTF-8"?>
<svg width="1.7rem" height="1.7rem" viewBox="0 0 15 18" fill="white" version="1.1" xmlns="http://www.w3.org/2000/svg"
     xmlns:xlink="http://www.w3.org/1999/xlink">
  <g id="Banksy-Home" transform="translate(-46.000000, -463.000000)" fill-rule="nonzero">
    <g id="Group-11" transform="translate(0.000000, 446.000000)">
      <g id="喇叭-(2)" transform="translate(46.000000, 17.000000)">
        <path
          d="M13.8586205,0.473838158 C13.2089977,-0.0175495575 12.4511044,-0.126746836 11.6932111,0.146246348 L5.30525316,3.3675658 C4.81803603,3.5313617 4.43908938,3.85895351 4.16841319,4.24114397 C3.84360177,4.1319467 3.46465512,4.02274944 2.92330277,4.02274942 L2.21954468,4.02274942 C0.974434231,4.02274942 0,5.06012347 0,6.37049074 L0,11.9395515 C0,13.2499188 0.974434256,14.2872928 2.21954468,14.2872928 L2.92330277,14.2872928 C3.46465512,14.2872928 3.8436018,14.2326942 4.16841319,14.0688983 C4.43908938,14.4510887 4.81803603,14.7240819 5.25111793,14.8878778 L11.5308054,17.8362041 L11.5849406,17.8362041 C11.8556168,17.9454014 12.1804282,18 12.4511044,18 C12.9383215,18 13.4255386,17.8362041 13.8044853,17.5632109 C14.5623786,17.0172246 14.9954605,16.1436464 14.9954605,15.1062723 L14.9954605,2.87617808 C15.0495957,1.89340265 14.6165138,0.965225847 13.8586205,0.473838158 Z M3.57292561,12.4309392 L3.57292561,12.5401365 C3.51879038,12.5401365 3.35638467,12.5947351 2.977438,12.5947351 L2.21954468,12.5947351 C1.89473326,12.5947351 1.62405709,12.2671433 1.62405709,11.8849529 L1.62405709,6.31589209 C1.62405709,5.93370165 1.89473328,5.60610984 2.21954468,5.60610984 L2.92330277,5.60610984 C3.35638467,5.60610984 3.51879038,5.66070847 3.51879035,5.66070847 L3.51879035,12.157946 C3.57292561,12.2671433 3.57292561,12.3217419 3.57292561,12.4309392 L3.57292561,12.4309392 Z M13.4255386,15.160871 C13.4255386,15.5976601 13.2089977,16.0344491 12.9383215,16.2528437 C12.7759158,16.3620409 12.5593748,16.4712382 12.2345634,16.3620409 L5.95487599,13.359116 L5.90074077,13.359116 C5.46765887,13.1953201 5.1969827,12.7039324 5.1969827,12.157946 L5.1969827,6.04289893 C5.1969827,5.49691259 5.52179412,5.00552487 5.90074077,4.84172894 L12.2886987,1.62040949 C12.5593748,1.56581087 12.7759158,1.67500812 12.9383215,1.72960675 C13.2631329,1.94800128 13.4255386,2.33019174 13.4255386,2.82157946 L13.4255386,15.160871 Z"
          id="Shape"></path>
      </g>
    </g>
  </g>
</svg>
