<svg id="图层_1" data-name="图层 1" xmlns="http://www.w3.org/2000/svg" viewBox="0 0 14.53 14.53"><defs><style>.cls-1{fill:#b3b3b3;}</style></defs><path class="cls-1" d="M14.53,14.53H0V0H14.53ZM1,13.53H13.53V1H1Z"/><rect class="cls-1" x="4.51" y="0.5" width="1" height="13.53"/><rect class="cls-1" x="9.02" y="0.5" width="1" height="13.53"/><path class="cls-1" d="M3.65,11A5.45,5.45,0,0,1,.33,9.94L1,9.17c.1.08,2.32,1.86,5.82-.05,4.41-2.41,7.43,0,7.55.05l-.62.78c-.11-.08-2.64-2-6.45.05A7.53,7.53,0,0,1,3.65,11Z"/><path class="cls-1" d="M3.65,6.49A5.45,5.45,0,0,1,.33,5.43L1,4.66l-.32.39L1,4.66c.1.08,2.32,1.86,5.82,0,4.41-2.41,7.43-.05,7.55,0l-.62.78c-.11-.09-2.64-2-6.45,0A7.53,7.53,0,0,1,3.65,6.49Z"/></svg>