<?xml version="1.0" encoding="UTF-8"?>
<svg width="23px" height="25px" viewBox="0 0 23 25" version="1.1" xmlns="http://www.w3.org/2000/svg" xmlns:xlink="http://www.w3.org/1999/xlink">
    <title>时间 (2)</title>
    <g id="Page-1" stroke="none" stroke-width="1" fill="none" fill-rule="evenodd">
        <g id="Banksy-Personal-Page" transform="translate(-405.000000, -404.000000)" fill="#999999" fill-rule="nonzero">
            <g id="Group-6" transform="translate(405.000000, 404.000000)">
                <g id="时间-(2)" transform="translate(0.000000, 0.000000)">
                    <path d="M12.5457212,12.6063852 L12.5457212,8.8580278 C12.5456802,8.58067902 12.435454,8.31470824 12.2392954,8.11863646 C12.0431368,7.92256469 11.7771172,7.81253813 11.4997685,7.81253813 C11.2225425,7.81253813 10.9566895,7.92275651 10.7607046,8.11882829 C10.5647196,8.31490007 10.45466,8.58080184 10.4547419,8.8580278 L10.4547419,13.4726613 L14.9426447,17.9604097 C15.1384376,18.1567753 15.4044289,18.2669939 15.681727,18.2666634 C15.9589715,18.2669528 16.2248997,18.1567373 16.4206549,17.9604097 C16.6167949,17.7644583 16.7270011,17.4985779 16.7270011,17.2213274 C16.7270011,16.9440769 16.6167949,16.6781965 16.4206549,16.4822451 L12.5457212,12.6063852 L12.5457212,12.6063852 Z" id="Path"></path>
                    <path d="M21.2410521,6.94718827 L19.0293622,7.42339313 C20.2035892,8.99293964 20.9091751,10.9331078 20.9091751,13.0395232 C20.9091751,18.2277636 16.6880088,22.4487755 11.4997685,22.4487755 C6.31245428,22.4487755 2.09097926,18.2277636 2.09097926,13.0395232 C2.09097926,7.85205468 6.31245428,3.63073402 11.4997685,3.63073402 C12.0259864,3.63073402 12.5413991,3.67781424 13.0430735,3.762713 L12.4802719,5.80522278 L18.3083402,4.28893095 L14.080382,0 L13.6023248,1.73409574 C12.9089365,1.60444985 12.2050185,1.53939092 11.4996141,1.53975477 C5.14872383,1.53975477 -4.38721429e-15,6.6884786 -4.38721429e-15,13.0395232 C-4.38721429e-15,19.391494 5.14872383,24.5397548 11.4997685,24.5397548 C17.8517393,24.5397548 23,19.391494 23,13.0395232 C23,10.7985047 22.352454,8.7129281 21.2410521,6.94718827 L21.2410521,6.94718827 Z" id="Path"></path>
                </g>
            </g>
        </g>
    </g>
</svg>
