<?xml version="1.0" encoding="UTF-8"?>
<svg width="1.7rem" height="1.7rem" viewBox="0 0 18 18" version="1.1" xmlns="http://www.w3.org/2000/svg" fill="white"
     xmlns:xlink="http://www.w3.org/1999/xlink">
  <g id="Banksy-Home" transform="translate(-42.000000, -298.000000)" fill-rule="nonzero">
    <g id="Group-6" transform="translate(0.000000, 280.000000)">
      <g id="艺术" transform="translate(42.000000, 18.000000)">
        <path
          d="M6.89881287,10.5498365 C6.87233611,11.3704709 6.21041737,12.0178603 5.41611489,11.999624 C4.64828914,11.9813877 4.0393239,11.3431165 4.01284715,10.5498365 C3.89811457,9.74743845 4.5688589,9.06357645 5.34551022,9.06357645 C6.23689413,9.06357645 6.89881287,9.74743845 6.89881287,10.5498365 Z M6.12216154,7.57731635 C5.32785906,7.55908004 4.69241705,6.9025725 4.68359148,6.09105627 C4.68359148,5.28865819 5.34551022,4.48626008 6.12216154,4.48626008 C6.90763846,4.5044964 7.54308044,5.16100393 7.56073162,5.97252019 C7.56955721,6.89345435 6.89881288,7.57731635 6.12216154,7.57731635 Z M12,4.48626008 C11.9823488,5.29777633 11.3469068,5.95428385 10.5614299,5.97252019 C9.7847786,6.09105627 9.12285986,5.3980761 9.12285986,4.48626008 C9.12285986,3.57444407 9.7847786,3 10.5614299,3 C11.3469068,3.01823632 11.9823488,3.67474385 12,4.48626008 Z"
          id="Shape"></path>
        <path
          d="M2.94325317,16.4082196 C6.44455433,16.7483791 5.2024475,13.042431 8.36171924,13.042431 L9.72083614,14.1613767 C10.1708748,18.2074843 4.96842736,19.2190112 2.94325317,16.4082196 Z M13.555166,11.0193771 C14.6892635,9.33648282 17.9565445,3.71489969 17.9565445,3.71489969 C18.0645538,3.46425585 17.9655453,3.17780576 17.7225244,3.04353228 C17.5515097,2.92716193 17.3264903,2.92716193 17.1554756,3.04353228 C17.1554756,3.04353228 12.1870483,7.31342903 10.7109213,8.65616386 C9.58582452,9.78406111 9.58582452,10.2316394 9.13578582,12.0219525 L10.3778927,13.0334794 C12.196049,12.4874339 12.6550885,12.3710635 13.555166,11.0193771 L13.555166,11.0193771 Z M4.06834993,14.6089549 C0.918078957,11.9145337 0.558047992,7.19705867 3.26728104,4.06401075 C3.26728104,4.05505918 3.27628183,4.05505918 3.27628181,4.04610761 C4.74340801,2.47063208 6.77758297,1.45910519 8.91976723,1.45910519 C11.8540196,1.45910519 13.7801853,2.91821037 13.7801853,4.04610761 C14.230224,3.59852934 14.6802627,3.25836985 15.0222921,2.91821036 C14.3472341,1.34273483 11.9710297,0 8.91976723,0 C3.99634375,0.00895157247 0,3.9744951 0,8.879953 L0,9.1126937 C0.00900078119,11.2163116 0.7650658,13.248317 2.14218426,14.8416956 C2.70923303,15.1818551 3.50130116,15.0654848 4.06834993,14.6089549 Z M13.672176,13.2662201 C14.4642441,14.7253253 12.6550885,15.7368522 10.962943,16.3008008 C10.8459329,16.8647494 10.5129043,17.4197465 9.94585549,17.9836951 C13.8971954,17.5361169 16.7234385,14.7253253 14.6892635,12.0309041 C14.4552434,12.4784823 14.1222147,12.8186418 13.672176,13.2662201 L13.672176,13.2662201 Z"
          id="Shape"></path>
      </g>
    </g>
  </g>
</svg>
