<svg id="图层_1" data-name="图层 1" xmlns="http://www.w3.org/2000/svg" viewBox="0 0 114.04 111.23"><defs><style>.cls-1{fill:#214182;}</style></defs><path class="cls-1" d="M91.4,18.67,87.21,5.49A7.88,7.88,0,0,0,77.34.37L19.66,18.67Z"/><rect class="cls-1" x="87.5" y="55.81" width="26.54" height="21.59" rx="4.3"/><path class="cls-1" d="M51.87,63.55c1.44,0,2.89,0,4.33,0a3.44,3.44,0,0,0,2.15-.74,5.35,5.35,0,0,0,1.26-6.46,4.17,4.17,0,0,0-2.8-1.82,22.73,22.73,0,0,0-5.14-.29c-.32,0-.31.22-.31.48v4.14c0,1.37,0,2.73,0,4.1C51.34,63.46,51.49,63.56,51.87,63.55Z"/><path class="cls-1" d="M59.7,69.14a6.94,6.94,0,0,0-2.29-.6c-1.84-.11-3.69-.06-5.54-.1-.39,0-.53.11-.52.6,0,3,0,6,0,9,0,.17,0,.34,0,.58,1.52,0,3,0,4.46,0a11.3,11.3,0,0,0,2.59-.35,4.64,4.64,0,0,0,3.57-4C62.49,71.75,61.74,70,59.7,69.14Z"/><path class="cls-1" d="M89.78,52.86h19.43V39.33A17.39,17.39,0,0,0,91.87,22H7.62A7.64,7.64,0,0,0,0,29.61v74a7.65,7.65,0,0,0,7.62,7.63H91.87a17.39,17.39,0,0,0,17.34-17.34V80.36H89.78a5.5,5.5,0,0,1-5.48-5.48V58.34A5.5,5.5,0,0,1,89.78,52.86Zm-19.88,21a14,14,0,0,1-1.07,4.87,8.14,8.14,0,0,1-4.44,4.35,14.18,14.18,0,0,1-5.81,1c-.43,0-.54.14-.54.64,0,2.18,0,4.35,0,6.53,0,.46-.08.64-.5.63-1,0-2.07,0-3.11,0-.35,0-.45-.15-.44-.55,0-2.22,0-4.45,0-6.68,0-.42-.09-.58-.46-.56-.71,0-1.43,0-2.2,0v.67c0,2.17,0,4.35,0,6.53,0,.45-.11.6-.5.59q-1.53,0-3.06,0c-.37,0-.5-.11-.5-.58,0-2.21,0-4.42,0-6.63,0-.46-.1-.59-.49-.59-2.26,0-4.52,0-6.78,0-.38,0-.51-.12-.5-.58.06-1.34.09-2.69.12-4,0-.34.13-.4.37-.4h2.36c1.33,0,1.89-.65,1.89-2.24q0-6.33,0-12.65V55.89c0-1.29-.36-1.82-1.46-1.91s-2-.06-3.05,0c-.41,0-.53-.14-.52-.62,0-1.22,0-2.45,0-3.68,0-.5.09-.68.55-.67,2.32,0,4.63,0,7,0l.54,0v-.63c0-2.13,0-4.25,0-6.38,0-.46.12-.59.5-.58,1,0,2.06,0,3.1,0,.34,0,.46.13.45.54,0,2.18,0,4.35,0,6.53,0,.42.1.58.47.56.71,0,1.42,0,2.19,0v-.7c0-2.11,0-4.22,0-6.33,0-.45.11-.6.49-.59,1,0,2.07,0,3.11,0,.33,0,.45.12.45.54,0,2.21,0,4.42,0,6.63,0,.41.09.57.45.61A14.07,14.07,0,0,1,64,50.89,7.35,7.35,0,0,1,67.48,55,8.82,8.82,0,0,1,65,64.43l-.41.34.68.3C68.53,66.59,70.17,69.72,69.9,73.89Z"/></svg>