<svg t="1621847316516" class="icon" viewBox="0 0 1024 1024" version="1.1" xmlns="http://www.w3.org/2000/svg" p-id="1461"
     width="1.7rem" height="1.7rem">
  <path
    d="M484.44928 314.59328c0 0 480.74752 66.36032 491.98592 135.82336 11.23328 69.46304-146.23744 413.95712-255.91296 443.48928-109.62432 29.52192-663.0912-146.28352-665.04192-217.9328C52.80256 577.38752 120.41216 435.52768 484.44928 314.59328L484.44928 314.59328zM346.08128 430.44864c-54.04672 53.38624 183.89504 76.46208 212.3264 72.94976 28.4928-3.57376 122.81344-101.41184 103.0912-112.08192-19.66592-10.7008-215.1424-39.16288-215.1424-39.16288S400.13312 377.07264 346.08128 430.44864L346.08128 430.44864zM621.20448 484.99712c-39.16288 56.32 185.6512 97.57184 209.23392 104.94464 23.57248 7.3728 66.944-33.00352 84.52096-47.6416 17.71008-14.67392 23.86944-36.65408 9.1648-57.29792-14.6432-20.63872-223.50848-81.97632-223.50848-81.97632S660.31104 428.67712 621.20448 484.99712L621.20448 484.99712zM363.87328 767.90784c26.8288 45.952 292.4288 73.90208 292.4288 73.90208s151.94624-139.01824 174.98624-201.61024c-34.49856-62.52544-287.31904-94.50496-287.31904-94.50496C431.616 636.2112 379.18208 721.95072 363.87328 767.90784L363.87328 767.90784zM126.06464 596.50048C11.6736 697.53344 232.5504 724.7872 286.4128 721.93536c42.57792-2.23744 180.57216-142.85824 190.98624-170.76736 10.48064-27.84256-191.6672-71.10656-191.6672-71.10656S240.49152 495.44704 126.06464 596.50048L126.06464 596.50048zM364.51328 275.95776c0 0 49.34656 80.70144 142.2336 43.71456C506.74688 319.67232 460.88192 250.20416 364.51328 275.95776M427.34592 202.98752c0 0 9.40544 64.83456 79.32416 65.5616C506.67008 268.54912 496.3584 211.81952 427.34592 202.98752M595.50208 202.98752c0 0-9.43104 64.83456-79.32416 65.5616C516.17792 268.54912 526.4896 211.81952 595.50208 202.98752M665.2928 275.95776c0 0-49.32096 80.70144-142.2592 43.71456C523.03872 319.67232 568.92928 250.20416 665.2928 275.95776M508.87168 220.83072c0 0-35.78368-27.67872 0.80384-105.5744C509.67552 115.25632 550.11328 184.2176 508.87168 220.83072"
    p-id="1462"></path>
</svg>
