<?xml version="1.0" encoding="UTF-8"?>
<svg width="24px" height="20px" viewBox="0 0 24 20" version="1.1" xmlns="http://www.w3.org/2000/svg" xmlns:xlink="http://www.w3.org/1999/xlink">
    <title>钱包 (1)</title>
    <g id="Page-1" stroke="none" stroke-width="1" fill="none" fill-rule="evenodd">
        <g id="Banksy-Personal-Page" transform="translate(-229.000000, -407.000000)" fill="#FFFFFF" fill-rule="nonzero">
            <g id="Group-2" transform="translate(205.000000, 392.000000)">
                <g id="Group" transform="translate(24.000000, 14.000000)">
                    <g id="钱包-(1)" transform="translate(0.000000, 1.000000)">
                        <path d="M16.9255814,5.27887897 C17.2604077,5.27887897 17.5750095,5.41146119 17.8154553,5.65190692 C18.055901,5.89235265 18.1862361,6.20695453 18.1862361,6.54178082 L18.1862361,10.1147594 L20.9839457,10.1147594 C21.3007947,10.1147594 21.5704535,10.382171 21.5704535,10.7012672 L21.5704535,13.1349375 C21.5704535,13.4517865 21.3030419,13.7214453 20.9839457,13.7214453 L18.1862361,13.7214453 L18.1862361,17.2944238 C18.1862361,17.6292501 18.0536538,17.943852 17.8154553,18.1842977 C17.5750095,18.4247434 17.2604077,18.5573256 16.9255814,18.5573256 L2.70332905,18.5573256 C2.36850276,18.5573256 2.05390087,18.4247434 1.81345515,18.1842977 C1.57300942,17.943852 1.44267436,17.6292501 1.44267436,17.2944238 L1.44267436,6.54178082 C1.44267436,6.20695453 1.57525658,5.89235265 1.81345515,5.65190692 C2.05390087,5.41146119 2.36850276,5.27887897 2.70332905,5.27887897 L16.9255814,5.27887897 M16.9255814,3.83620462 L2.70332905,3.83620462 C1.21571157,3.83620462 0,5.05416334 0,6.54178082 L0,17.2944238 C0,18.7820413 1.21571157,20 2.70332905,20 L16.9233342,20 C18.4109517,20 19.6266633,18.7820413 19.6266633,17.2944238 L19.6266633,15.1641196 L20.9816985,15.1641196 C22.0962881,15.1641196 23.0086335,14.2517741 23.0086335,13.1349375 L23.0086335,10.7012672 C23.0086335,9.58443047 22.0962881,8.67208501 20.9816985,8.67208501 L19.6266633,8.67208501 L19.6266633,6.54178082 C19.6289104,5.05416334 18.4109517,3.83620462 16.9255814,3.83620462 Z" id="Shape"></path>
                        <path d="M20.9839457,10.1147594 C21.3007947,10.1147594 21.5704535,10.382171 21.5704535,10.7012672 L21.5704535,13.1349375 C21.5704535,13.4517865 21.3030419,13.7214453 20.9839457,13.7214453 L15.3053817,13.7214453 C14.9885326,13.7214453 14.7188739,13.4540337 14.7188739,13.1349375 L14.7188739,10.7012672 C14.7188739,10.3844181 14.9862855,10.1147594 15.3053817,10.1147594 L20.9839457,10.1147594 M20.9839457,8.67208501 L15.3053817,8.67208501 C14.1907921,8.67208501 13.2784467,9.58443047 13.2784467,10.7012672 L13.2784467,13.1349375 C13.2784467,14.2517741 14.1907921,15.1641196 15.3053817,15.1641196 L20.9816985,15.1641196 C22.0962881,15.1641196 23.0086377,14.2517741 23.0086377,13.1349375 L23.0086377,10.7012672 C23.0108807,9.58443047 22.0985352,8.67208501 20.9839457,8.67208501 L20.9839457,8.67208501 Z" id="Shape"></path>
                        <path d="M17.9682619,11.2203603 C17.5705152,11.2203603 17.2469247,11.5439508 17.2469247,11.9416974 C17.2469247,12.3394441 17.5705152,12.6630346 17.9682619,12.6630346 C18.3660086,12.6630346 18.6895991,12.3394441 18.6895991,11.9416974 C18.6895991,11.5439508 18.3660086,11.2203603 17.9682619,11.2203603 Z M3.04489681,5.24292447 L2.60445417,3.86991196 L14.4739338,0.0519933801 C15.0267343,-0.127779125 15.6244779,0.173339821 15.8064975,0.728387431 L16.9120984,4.09013328 L15.5413331,4.53956454 L14.5840445,1.62724996 C14.5683144,1.58005968 14.518877,1.55534096 14.4716867,1.56882389 L3.04489681,5.24292447 Z" id="Shape"></path>
                    </g>
                </g>
            </g>
        </g>
    </g>
</svg>
