<svg id="图层_1" data-name="图层 1" xmlns="http://www.w3.org/2000/svg" viewBox="0 0 26.87 23.08"><defs><style>.cls-1{fill:#554bff;}</style></defs><path class="cls-1" d="M0,20.36A10.41,10.41,0,0,0,7.92,18c-.18,0-.37,0-.56-.08a5.51,5.51,0,0,1-4.09-3.24,5.09,5.09,0,0,1-.25-.6c-.07-.18,0-.25.19-.23a6.19,6.19,0,0,0,1.92,0l.07,0c-.33-.14-.66-.26-1-.42a5.7,5.7,0,0,1-3-3.94A11.82,11.82,0,0,1,1,8.28a1.47,1.47,0,0,1,.07-.34c.1,0,.21.06.31.11a4.79,4.79,0,0,0,1.74.55h.11l-.62-.69A6,6,0,0,1,1.19,5,6.25,6.25,0,0,1,1.6,1.23,1.21,1.21,0,0,1,1.69,1c.14-.26.19-.26.36,0a16.53,16.53,0,0,0,3.7,3.48,15.33,15.33,0,0,0,4,1.94A15.7,15.7,0,0,0,12.81,7c.29,0,.32,0,.28-.33a5.89,5.89,0,0,1,.33-3.11,5.61,5.61,0,0,1,1.87-2.53,5.22,5.22,0,0,1,3-1.06,5.45,5.45,0,0,1,4.12,1.69.39.39,0,0,0,.42.13,10.59,10.59,0,0,0,3-1.15.57.57,0,0,1,.24-.06,5.33,5.33,0,0,1-2.2,3.05,10,10,0,0,0,2.92-.83l.07.07c-.11.16-.2.33-.31.48A12.19,12.19,0,0,1,24.34,5.7a.48.48,0,0,0-.19.43,14.57,14.57,0,0,1-.27,3.37A26.06,26.06,0,0,1,23,12.61a15.5,15.5,0,0,1-2.12,4.05A15.41,15.41,0,0,1,17,20.56a15,15,0,0,1-5,2.14A16.71,16.71,0,0,1,7.25,23a13.74,13.74,0,0,1-4.08-.93,17.6,17.6,0,0,1-3-1.5c-.07-.05-.13-.12-.2-.18Z"/></svg>